<svg xmlns="http://www.w3.org/2000/svg" xmlns:xlink="http://www.w3.org/1999/xlink" width="200" zoomAndPan="magnify" viewBox="0 0 150 149.999998" height="200" preserveAspectRatio="xMidYMid meet" version="1.2"><defs><clipPath id="fb25db3bd8"><path d="M 0 10.089844 L 150 10.089844 L 150 139.839844 L 0 139.839844 Z M 0 10.089844 "/></clipPath><clipPath id="8f19f5ccd1"><path d="M 28 42 L 118 42 L 118 139.839844 L 28 139.839844 Z M 28 42 "/></clipPath><clipPath id="2d2056ac2f"><path d="M 0 10.089844 L 150 10.089844 L 150 139.839844 L 0 139.839844 Z M 0 10.089844 "/></clipPath></defs><g id="4b3987c84b"><g clip-rule="nonzero" clip-path="url(#fb25db3bd8)"><path style=" stroke:none;fill-rule:nonzero;fill:#f0816a;fill-opacity:1;" d="M 147.148438 98.308594 C 145.378906 99.578125 143.480469 100.902344 141.257812 101.136719 C 139.195312 101.355469 137.203125 100.609375 135.445312 99.59375 C 132.546875 97.917969 130.648438 96.035156 129.769531 92.785156 C 128.9375 89.71875 128.886719 86.464844 128.949219 83.308594 C 129.011719 79.941406 129.257812 76.570312 129.496094 73.210938 C 129.679688 70.59375 129.929688 67.882812 129.5625 65.261719 C 131.921875 65.332031 134.292969 65.339844 136.652344 65.34375 C 137.042969 65.34375 137.363281 65.25 137.625 65.105469 C 138.328125 65.914062 139.894531 65.726562 140.136719 64.5625 C 140.582031 62.425781 139.4375 59.726562 138.632812 57.773438 C 137.78125 55.683594 136.742188 53.652344 135.410156 51.828125 C 133.949219 49.828125 132.261719 48.039062 130.402344 46.445312 C 133.355469 43.601562 133.996094 39.144531 133.488281 35.210938 C 132.925781 30.851562 130.9375 26.785156 128.289062 23.316406 C 125.582031 19.761719 122.160156 16.652344 118.410156 14.222656 C 114.75 11.855469 109.957031 10.089844 105.609375 11.484375 C 102.152344 12.59375 98.9375 15.601562 98.746094 19.28125 C 94.605469 17.660156 90.1875 16.753906 85.804688 16.839844 C 81.429688 16.929688 77.113281 18.132812 73.757812 21 C 73.75 20.589844 73.546875 20.203125 73.082031 20.128906 C 67.449219 19.207031 61.945312 19.203125 56.425781 20.332031 C 55.347656 17.527344 52.582031 15.164062 49.992188 14.015625 C 45.875 12.191406 41.242188 12.8125 37.1875 14.484375 C 33.3125 16.082031 29.78125 18.515625 26.921875 21.578125 C 24.1875 24.507812 21.515625 28.253906 21.261719 32.382812 C 21.097656 35.09375 22.558594 38.050781 24.863281 39.363281 C 20.257812 40.570312 15.960938 43.050781 12.457031 46.21875 C 9.953125 48.484375 7.796875 51.183594 6.210938 54.167969 C 4.839844 56.757812 3.210938 60.746094 6.296875 62.792969 C 6.910156 63.199219 7.585938 62.847656 7.902344 62.304688 C 8.328125 62.519531 8.800781 62.589844 9.238281 62.421875 C 9.378906 62.496094 9.535156 62.558594 9.71875 62.589844 C 12.480469 63.109375 15.273438 63.542969 18.082031 63.929688 C 18.113281 64.1875 18.160156 64.445312 18.1875 64.707031 C 17.851562 64.808594 17.589844 65.082031 17.617188 65.550781 C 18.148438 73.402344 20.683594 80.972656 20.714844 88.886719 C 20.734375 92.84375 20.109375 96.683594 17.886719 100.035156 C 16.15625 102.652344 13.644531 104.257812 10.449219 103.710938 C 7.636719 103.230469 5.140625 101.707031 2.375 101.046875 C 0.730469 100.648438 0.0976562 102.980469 1.628906 103.566406 C 4.691406 108.980469 9.183594 113.910156 15.089844 116.164062 C 20.710938 118.308594 27.265625 117.058594 31.609375 112.832031 C 33.960938 110.550781 35.378906 107.527344 35.183594 104.230469 C 37.882812 105.71875 40.859375 106.792969 43.675781 107.699219 C 47.589844 108.960938 51.597656 109.96875 55.65625 110.746094 C 54.910156 111.640625 54.492188 112.800781 54.429688 113.980469 C 54.351562 115.519531 54.925781 117.390625 56.289062 118.257812 C 55.980469 118.691406 55.699219 119.164062 55.457031 119.6875 C 53.730469 123.417969 53.5 128.582031 54.984375 132.425781 C 56.585938 136.570312 60.425781 139.03125 64.71875 139.679688 C 65.421875 139.785156 65.878906 139.253906 65.902344 138.722656 C 65.988281 138.746094 66.074219 138.761719 66.160156 138.785156 C 66.523438 138.976562 66.882812 139.136719 67.222656 139.25 C 68.964844 139.828125 70.804688 139.601562 72.457031 138.890625 C 73.332031 138.515625 74.113281 137.980469 74.820312 137.351562 C 75.074219 137.214844 75.335938 137.085938 75.574219 136.921875 C 77.246094 135.773438 78.488281 134.195312 79.21875 132.402344 C 79.285156 132.289062 79.339844 132.164062 79.378906 132.035156 C 79.390625 131.957031 79.421875 131.890625 79.441406 131.816406 C 79.492188 131.660156 79.546875 131.507812 79.589844 131.347656 C 79.597656 131.335938 79.601562 131.328125 79.605469 131.316406 C 79.714844 131.140625 79.777344 130.953125 79.785156 130.75 C 79.8125 130.632812 79.816406 130.515625 79.804688 130.398438 C 79.820312 130.320312 79.839844 130.242188 79.851562 130.160156 C 79.828125 130.347656 79.84375 130.535156 79.90625 130.710938 C 79.664062 131.296875 79.945312 132.125 80.769531 132.125 C 81.300781 132.125 81.601562 131.777344 81.691406 131.375 C 82.527344 130.757812 83.085938 129.832031 83.4375 128.8125 C 83.695312 128.929688 83.976562 129 84.285156 128.996094 C 85.480469 128.984375 86.710938 128.921875 87.902344 128.816406 C 88.148438 128.789062 88.402344 128.753906 88.652344 128.707031 C 90.292969 128.75 91.941406 128.738281 93.582031 128.675781 C 96.320312 128.570312 99.277344 128.644531 101.882812 127.746094 C 102.746094 127.449219 103.117188 126.777344 103.117188 126.097656 C 103.277344 126.183594 103.433594 126.273438 103.597656 126.347656 C 104.816406 126.871094 105.835938 125.585938 104.996094 124.535156 C 104.371094 123.75 103.535156 123.179688 102.726562 122.585938 C 101.960938 122.027344 101.191406 121.480469 100.421875 120.925781 C 99.53125 120.289062 98.632812 119.675781 97.734375 119.050781 C 99.292969 118.984375 100.859375 118.75 102.074219 117.894531 C 103.757812 116.703125 104.589844 114.394531 103.910156 112.417969 C 103.539062 111.328125 102.769531 110.429688 101.808594 109.859375 C 104.457031 109.210938 107.066406 108.4375 109.632812 107.515625 C 109.980469 107.695312 110.398438 107.742188 110.789062 107.535156 C 112.285156 106.757812 113.828125 105.675781 115.144531 104.378906 C 117.601562 109.820312 123.746094 113.046875 129.664062 112.996094 C 137.65625 112.925781 144.691406 107.496094 149.050781 101.1875 C 149.242188 100.910156 149.296875 100.617188 149.257812 100.34375 C 149.894531 99.128906 148.449219 97.371094 147.148438 98.308594 Z M 147.148438 98.308594 "/></g><path style=" stroke:none;fill-rule:nonzero;fill:#6699cc;fill-opacity:1;" d="M 106.640625 68.445312 C 106.589844 68.34375 106.527344 68.25 106.472656 68.148438 C 106.566406 68.21875 106.65625 68.289062 106.746094 68.367188 C 106.707031 68.390625 106.671875 68.417969 106.640625 68.445312 Z M 75.011719 51.234375 C 75.050781 51.085938 75.089844 50.933594 75.136719 50.78125 C 75.082031 50.773438 75.03125 50.75 74.980469 50.738281 C 74.992188 50.902344 75.003906 51.070312 75.011719 51.234375 Z M 28.613281 38 C 28.796875 37.996094 28.945312 38.046875 29.074219 38.121094 C 29.101562 38.039062 29.117188 37.957031 29.171875 37.875 C 31.214844 34.742188 33.765625 32.03125 36.671875 29.691406 C 41.625 25.707031 47.4375 22.726562 53.5625 21.027344 C 52.921875 19.953125 52.261719 18.929688 51.226562 18.050781 C 49.746094 16.792969 47.898438 15.984375 45.960938 15.75 C 41.578125 15.214844 37.121094 17.148438 33.539062 19.519531 C 30.117188 21.785156 27.046875 24.929688 25.136719 28.582031 C 24.179688 30.414062 23.457031 32.742188 24.195312 34.773438 C 24.863281 36.632812 26.589844 38.074219 28.613281 38 Z M 91.554688 65.679688 C 91.402344 65.613281 91.257812 65.539062 91.105469 65.484375 C 91.164062 65.535156 91.230469 65.582031 91.292969 65.628906 C 91.433594 65.664062 91.539062 65.683594 91.554688 65.679688 Z M 29.023438 68.777344 C 29.078125 68.941406 29.125 69.109375 29.179688 69.273438 C 29.164062 69.144531 29.152344 69.015625 29.136719 68.886719 C 29.101562 68.855469 29.0625 68.816406 29.023438 68.777344 Z M 18.183594 64.710938 C 18.152344 64.453125 18.109375 64.195312 18.078125 63.933594 C 15.269531 63.542969 12.476562 63.113281 9.710938 62.59375 C 9.527344 62.5625 9.371094 62.5 9.230469 62.425781 C 8.792969 62.589844 8.320312 62.523438 7.898438 62.308594 C 8.148438 61.875 8.175781 61.332031 7.722656 60.9375 C 5.886719 59.34375 8.761719 55.214844 9.707031 53.738281 C 11.28125 51.28125 13.226562 49.089844 15.460938 47.210938 C 19.941406 43.445312 25.40625 41.316406 31.148438 40.414062 C 31.972656 40.285156 31.996094 39.261719 31.492188 38.785156 C 36.621094 33.113281 42.601562 28.316406 49.734375 25.390625 C 56.894531 22.457031 65.109375 21.058594 72.820312 22.03125 C 72.953125 22.046875 73.074219 22.03125 73.179688 21.992188 C 73.261719 22.632812 73.976562 23.222656 74.628906 22.777344 C 80.851562 18.539062 88.851562 19.128906 95.691406 21.429688 C 102.3125 23.660156 108.253906 27.835938 112.765625 33.144531 C 115.382812 36.222656 117.128906 39.753906 119.167969 43.199219 C 119.9375 44.496094 121.941406 43.636719 121.582031 42.183594 C 120.65625 38.429688 118.363281 35.035156 115.988281 32.039062 C 113.605469 29.035156 110.792969 26.410156 107.6875 24.164062 C 105.5625 22.628906 103.238281 21.273438 100.796875 20.15625 C 101.183594 17.082031 103.683594 14.761719 106.6875 14.035156 C 110.414062 13.136719 114.226562 15.074219 117.210938 17.125 C 122.996094 21.109375 128.410156 27.117188 129.957031 34.132812 C 130.773438 37.820312 130.148438 41.496094 128.132812 44.660156 C 127.25 44.023438 126.335938 43.429688 125.386719 42.882812 C 124.242188 42.214844 123.21875 43.972656 124.351562 44.65625 C 127.902344 46.804688 130.824219 49.890625 132.976562 53.429688 C 134.011719 55.132812 134.949219 56.886719 135.636719 58.757812 C 135.992188 59.726562 136.296875 60.71875 136.550781 61.71875 C 136.820312 62.765625 136.925781 63.96875 137.464844 64.914062 C 137.507812 64.988281 137.570312 65.042969 137.625 65.105469 C 137.363281 65.25 137.042969 65.34375 136.652344 65.34375 C 134.292969 65.339844 131.921875 65.328125 129.5625 65.261719 C 129.53125 65.019531 129.496094 64.769531 129.453125 64.527344 C 129.226562 63.335938 127.472656 63.859375 127.652344 65.023438 C 128.078125 67.78125 127.625 70.753906 127.324219 73.496094 C 127.226562 74.378906 127.125 75.261719 127.023438 76.144531 C 126.894531 76.246094 127.066406 76.539062 126.921875 76.617188 C 126.914062 76.773438 126.921875 76.929688 126.921875 77.085938 C 126.808594 78.105469 126.695312 79.128906 126.597656 80.15625 C 126.453125 81.617188 126.332031 83.078125 126.273438 84.550781 C 126.136719 87.914062 126.226562 91.445312 127.261719 94.675781 C 128.445312 98.371094 131.054688 100.761719 134.40625 102.625 C 136.59375 103.839844 139.089844 104.636719 141.613281 104.371094 C 141.796875 104.355469 141.972656 104.316406 142.152344 104.289062 C 138.734375 107.328125 134.761719 109.769531 130.179688 110.152344 C 124.75 110.601562 118.648438 108 116.585938 102.742188 C 117.484375 101.546875 118.160156 100.226562 118.453125 98.816406 C 119.082031 95.84375 118.167969 92.300781 115.484375 90.644531 C 115.492188 90.621094 115.511719 90.605469 115.515625 90.582031 C 116.316406 87.917969 117.207031 85.273438 118.027344 82.613281 C 118.429688 81.308594 118.828125 80 119.222656 78.695312 C 119.464844 77.890625 119.742188 77.0625 119.949219 76.222656 C 120.671875 76.523438 121.6875 76.246094 121.992188 75.339844 C 123.414062 71.144531 122.875 66.214844 121.738281 62.015625 C 121.039062 59.425781 120 56.785156 118.550781 54.445312 C 119.40625 54.570312 120.253906 54.664062 121.070312 54.730469 C 122.628906 54.855469 124.203125 54.867188 125.765625 54.757812 C 127.5 54.636719 129.535156 54.542969 130.890625 53.332031 C 131.917969 52.417969 131.324219 50.730469 130.105469 50.371094 C 128.679688 49.949219 127.042969 50.496094 125.609375 50.695312 C 124.164062 50.894531 122.683594 50.960938 121.222656 50.945312 C 119.773438 50.925781 118.300781 50.855469 116.867188 50.660156 C 116.265625 50.578125 115.671875 50.457031 115.078125 50.335938 C 114.929688 50.265625 114.773438 50.230469 114.617188 50.242188 C 113.972656 50.105469 113.328125 49.972656 112.671875 49.878906 C 112.015625 49.789062 111.378906 49.984375 111.109375 50.644531 C 110.871094 51.246094 111.066406 51.964844 111.652344 52.296875 C 112.632812 52.863281 113.730469 53.300781 114.871094 53.644531 C 116.507812 56.566406 117.945312 59.523438 118.722656 62.851562 C 119.082031 64.390625 119.261719 65.917969 119.332031 67.445312 C 119.382812 68.515625 119.382812 69.589844 119.355469 70.664062 C 119.347656 70.976562 119.339844 71.289062 119.328125 71.601562 C 119.308594 72.175781 119.285156 72.753906 119.257812 73.332031 C 118.738281 73.199219 118.140625 73.351562 117.84375 73.894531 C 117.8125 73.949219 117.789062 74.011719 117.761719 74.066406 C 117.6875 74.214844 117.617188 74.367188 117.550781 74.523438 C 116.929688 74.25 116.324219 73.90625 115.734375 73.554688 C 115.0625 73.367188 114.394531 73.160156 113.730469 72.953125 C 113.253906 72.804688 112.78125 72.65625 112.300781 72.503906 C 112.15625 72.457031 112.007812 72.410156 111.863281 72.363281 C 111.804688 72.027344 111.738281 71.691406 111.636719 71.34375 C 111.238281 69.933594 110.546875 68.605469 109.605469 67.503906 C 108.671875 66.414062 107.5 65.546875 106.125 65.03125 C 104.300781 64.347656 102.324219 64.355469 100.476562 64.863281 C 100.347656 64.902344 100.226562 64.941406 100.101562 64.980469 C 99.074219 65.304688 98.09375 65.773438 97.210938 66.390625 C 95.480469 64.152344 92.808594 62.636719 90.0625 62.316406 C 90.097656 62.121094 90.136719 61.933594 90.1875 61.742188 C 90.285156 61.375 90.410156 61.011719 90.554688 60.65625 C 90.441406 60.433594 90.382812 60.195312 90.367188 59.953125 C 90.453125 60.097656 90.566406 60.21875 90.699219 60.320312 C 91.367188 60.816406 92.484375 60.683594 92.902344 59.628906 C 93.597656 57.875 94.167969 55.867188 94.496094 53.789062 C 95.46875 47.703125 94.371094 41.03125 88.230469 38.390625 C 82.636719 35.988281 78.53125 39.945312 75.96875 44.542969 C 75.453125 42.28125 74.730469 40.039062 73.625 38.144531 C 72.902344 36.902344 71.769531 35.777344 70.277344 35.640625 C 68.664062 35.496094 67.359375 36.480469 66.3125 37.597656 C 62.226562 41.960938 59.417969 47.726562 58.546875 53.683594 C 58.390625 54.753906 58.289062 55.832031 58.261719 56.90625 C 58.238281 57.832031 59.242188 57.980469 59.761719 57.484375 C 59.773438 57.722656 59.785156 57.96875 59.761719 58.214844 C 59.714844 58.6875 59.570312 59.121094 59.371094 59.527344 C 59.351562 59.570312 59.335938 59.617188 59.316406 59.660156 C 59.058594 60.140625 58.707031 60.578125 58.292969 60.96875 C 56.691406 62.488281 54.441406 62.585938 52.371094 62.828125 C 52.332031 62.832031 52.292969 62.835938 52.253906 62.839844 C 52.152344 62.867188 52.046875 62.898438 51.941406 62.921875 C 50.84375 63.207031 49.734375 63.433594 48.621094 63.625 C 47.945312 63.742188 47.261719 63.84375 46.582031 63.941406 C 46.335938 63.8125 46.089844 63.675781 45.828125 63.574219 C 44.3125 62.972656 42.582031 62.871094 40.964844 63.332031 C 40.398438 63.496094 39.875 63.726562 39.386719 64.003906 C 38.925781 64.269531 38.496094 64.578125 38.105469 64.929688 C 37.570312 65.03125 37.035156 65.132812 36.5 65.21875 C 36.257812 65.257812 36.03125 65.257812 35.808594 65.226562 C 36.035156 64.359375 35.964844 63.472656 36.003906 62.578125 C 36.046875 61.628906 36.136719 60.683594 36.304688 59.746094 C 36.390625 59.25 36.492188 58.757812 36.605469 58.265625 C 36.917969 56.929688 37.332031 55.605469 37.851562 54.335938 C 38.660156 52.363281 39.746094 50.492188 41.035156 48.769531 C 43.890625 48.683594 46.746094 48.492188 49.574219 48.066406 C 51.476562 47.78125 50.933594 44.859375 49.132812 44.816406 C 47.589844 44.777344 46.046875 44.792969 44.5 44.828125 C 44.875 44.023438 43.75 43.15625 42.925781 43.796875 C 42.46875 44.152344 42.03125 44.523438 41.601562 44.90625 C 38.972656 45.003906 36.347656 45.128906 33.71875 45.167969 C 31.230469 45.203125 28.738281 45.207031 26.25 45.21875 C 24.925781 45.226562 23.597656 45.234375 22.269531 45.246094 C 21.027344 45.253906 19.648438 45.078125 18.46875 45.515625 C 17.582031 45.84375 17.160156 47.234375 18.179688 47.726562 C 19.304688 48.273438 20.542969 48.277344 21.777344 48.375 C 23.101562 48.484375 24.429688 48.578125 25.757812 48.644531 C 28.410156 48.777344 31.0625 48.832031 33.71875 48.835938 C 35.183594 48.839844 36.644531 48.839844 38.113281 48.824219 C 37.101562 50.230469 36.230469 51.742188 35.515625 53.347656 C 34.707031 55.175781 34.074219 57.058594 33.691406 59.019531 C 33.496094 60.011719 33.242188 61.214844 33.144531 62.394531 C 33.074219 63.304688 33.105469 64.191406 33.324219 64.972656 C 32.421875 65.644531 31.089844 65.460938 30.019531 65.421875 C 29.410156 65.402344 28.800781 65.378906 28.191406 65.355469 C 28.175781 65.621094 28.210938 65.871094 28.289062 66.097656 C 28.277344 66.132812 28.261719 66.164062 28.25 66.199219 C 28.21875 66.3125 28.203125 66.421875 28.191406 66.53125 C 27.65625 65.726562 26.308594 66.160156 26.53125 67.246094 C 27.078125 69.90625 27.476562 72.601562 27.800781 75.300781 C 27.957031 76.601562 28.078125 77.910156 28.175781 79.214844 C 28.28125 80.628906 28.121094 82.253906 28.757812 83.546875 C 28.777344 83.585938 28.804688 83.609375 28.828125 83.644531 C 25.300781 87.324219 25.523438 93.476562 28.023438 97.699219 C 29.34375 99.929688 31.195312 101.667969 33.300781 103.082031 C 32.933594 103.265625 32.640625 103.613281 32.625 104.164062 C 32.394531 110.667969 25.726562 115.089844 19.617188 114.808594 C 17.59375 114.714844 15.703125 114.183594 13.941406 113.347656 C 13.261719 113.027344 12.601562 112.664062 11.964844 112.253906 C 9.386719 110.601562 7.164062 108.292969 5.335938 105.785156 C 5.101562 105.457031 4.867188 105.125 4.644531 104.796875 C 5.0625 104.980469 5.476562 105.15625 5.894531 105.328125 C 6.996094 105.78125 8.117188 106.183594 9.308594 106.40625 C 11.230469 106.773438 13.105469 106.65625 14.816406 106.035156 C 16.046875 105.589844 17.195312 104.886719 18.207031 103.878906 C 18.519531 103.566406 18.800781 103.238281 19.078125 102.910156 C 24.519531 96.46875 23.339844 87.023438 21.882812 79.320312 C 21.015625 74.75 19.8125 70.1875 19.453125 65.539062 C 19.410156 64.835938 18.707031 64.554688 18.183594 64.710938 Z M 101.355469 48.484375 C 101.355469 48.613281 101.386719 48.734375 101.453125 48.84375 C 101.507812 49.023438 101.609375 49.175781 101.746094 49.304688 C 101.808594 49.351562 101.867188 49.402344 101.933594 49.453125 C 101.960938 49.476562 101.988281 49.496094 102.015625 49.523438 C 102.132812 49.644531 102.261719 49.75 102.410156 49.835938 C 102.546875 49.914062 102.6875 49.992188 102.832031 50.066406 C 102.898438 50.105469 102.972656 50.140625 103.046875 50.175781 C 103.191406 50.246094 103.339844 50.308594 103.488281 50.359375 C 103.652344 50.382812 103.8125 50.402344 103.976562 50.425781 C 104.007812 50.425781 104.039062 50.433594 104.074219 50.4375 C 104.152344 50.445312 104.226562 50.457031 104.304688 50.460938 C 104.496094 50.464844 104.730469 50.402344 104.933594 50.363281 C 105.183594 50.292969 105.40625 50.164062 105.59375 49.980469 C 105.78125 49.792969 105.910156 49.570312 105.980469 49.320312 C 106.050781 49.054688 106.050781 48.789062 105.980469 48.523438 C 105.90625 48.269531 105.78125 48.050781 105.59375 47.863281 C 105.554688 47.816406 105.511719 47.765625 105.472656 47.71875 C 105.339844 47.574219 105.171875 47.464844 105.007812 47.363281 C 104.773438 47.21875 104.53125 47.09375 104.261719 47.027344 C 104.128906 46.996094 103.988281 46.976562 103.851562 46.953125 C 103.789062 46.941406 103.726562 46.933594 103.664062 46.921875 C 103.644531 46.917969 103.628906 46.914062 103.613281 46.910156 C 103.417969 46.851562 103.230469 46.84375 103.039062 46.878906 C 103.054688 46.875 103.070312 46.871094 103.089844 46.871094 C 102.980469 46.871094 102.871094 46.871094 102.761719 46.871094 C 102.636719 46.890625 102.507812 46.90625 102.382812 46.921875 C 102.269531 46.972656 102.15625 47.019531 102.042969 47.066406 C 101.945312 47.140625 101.851562 47.214844 101.753906 47.289062 C 101.617188 47.417969 101.515625 47.570312 101.460938 47.75 C 101.398438 47.859375 101.363281 47.980469 101.363281 48.109375 C 101.320312 48.230469 101.320312 48.359375 101.355469 48.484375 Z M 30.878906 97.253906 C 31.164062 97.640625 31.464844 98.007812 31.78125 98.355469 C 31.71875 98.242188 31.664062 98.128906 31.609375 98.015625 C 31.355469 97.777344 31.109375 97.527344 30.878906 97.253906 Z M 117.289062 75.210938 C 117.367188 74.980469 117.453125 74.757812 117.546875 74.535156 C 117.503906 74.539062 117.460938 74.550781 117.414062 74.554688 C 117.378906 74.773438 117.335938 74.992188 117.289062 75.210938 Z M 117.289062 75.210938 "/><g clip-rule="nonzero" clip-path="url(#8f19f5ccd1)"><path style=" stroke:none;fill-rule:nonzero;fill:#f7b9ac;fill-opacity:1;" d="M 113.734375 72.960938 C 113.261719 72.808594 112.785156 72.664062 112.308594 72.507812 C 112.160156 72.460938 112.015625 72.417969 111.871094 72.367188 C 112.242188 74.484375 111.890625 76.429688 111.070312 78.207031 C 110.757812 78.878906 110.382812 79.527344 109.949219 80.148438 C 108.59375 82.101562 106.726562 83.796875 104.769531 85.21875 C 104.371094 85.507812 103.972656 85.792969 103.574219 86.058594 C 102.050781 87.070312 100.472656 87.996094 98.902344 88.945312 C 98.132812 89.410156 97.246094 90.085938 96.3125 90.582031 C 95.859375 90.824219 95.402344 91.015625 94.9375 91.128906 C 94.570312 91.21875 94.199219 91.269531 93.828125 91.222656 C 92.09375 91.015625 91.035156 89.179688 90.0625 87.925781 C 88.835938 86.34375 87.652344 84.726562 86.53125 83.066406 C 83.152344 78.085938 77.582031 69.570312 83.585938 64.269531 C 83.820312 64.0625 84.0625 63.886719 84.308594 63.710938 C 84.539062 63.550781 84.769531 63.414062 85.007812 63.28125 C 85.648438 62.925781 86.3125 62.667969 87 62.5 C 87.5 62.375 88.007812 62.300781 88.523438 62.273438 C 89.039062 62.246094 89.554688 62.265625 90.070312 62.324219 C 90.105469 62.132812 90.144531 61.941406 90.195312 61.75 C 90.292969 61.382812 90.421875 61.019531 90.5625 60.664062 C 90.449219 60.441406 90.390625 60.203125 90.375 59.960938 C 90.207031 59.683594 90.132812 59.324219 90.214844 58.898438 C 90.796875 55.957031 91.773438 53.140625 91.878906 50.164062 C 91.214844 50.4375 90.382812 50.292969 89.863281 49.5625 C 89.496094 49.417969 89.125 49.273438 88.753906 49.144531 C 87.335938 48.648438 85.898438 48.257812 84.40625 47.992188 C 83.042969 47.75 81.652344 47.660156 80.265625 47.652344 C 79.710938 47.648438 79.15625 47.652344 78.605469 47.671875 C 78.261719 47.679688 78.023438 47.507812 77.875 47.269531 C 77.449219 48.167969 77.085938 49.035156 76.777344 49.785156 C 76.464844 50.566406 75.765625 50.878906 75.136719 50.777344 C 75.09375 50.933594 75.058594 51.082031 75.015625 51.230469 C 75.003906 51.066406 74.996094 50.898438 74.984375 50.734375 C 74.453125 50.585938 74 50.140625 73.925781 49.398438 C 73.847656 48.550781 73.734375 47.703125 73.601562 46.855469 C 73.355469 47.246094 72.949219 47.53125 72.472656 47.472656 C 71.449219 47.34375 70.425781 47.242188 69.402344 47.183594 C 68.753906 47.148438 68.101562 47.125 67.445312 47.132812 C 65.835938 47.152344 64.261719 47.324219 62.671875 47.53125 C 61.355469 50.5 60.488281 53.671875 60.0625 56.910156 C 60.03125 57.15625 59.917969 57.34375 59.765625 57.488281 C 59.78125 57.726562 59.789062 57.96875 59.765625 58.214844 C 59.722656 58.691406 59.578125 59.125 59.378906 59.527344 C 59.382812 59.566406 59.382812 59.605469 59.386719 59.644531 C 59.367188 59.652344 59.34375 59.65625 59.320312 59.664062 C 59.0625 60.144531 58.714844 60.578125 58.300781 60.972656 C 56.699219 62.488281 54.449219 62.589844 52.375 62.832031 C 52.335938 62.835938 52.300781 62.839844 52.261719 62.84375 C 52.15625 62.871094 52.050781 62.902344 51.945312 62.925781 C 50.851562 63.210938 49.742188 63.433594 48.625 63.628906 C 47.949219 63.746094 47.269531 63.847656 46.589844 63.945312 C 47.5625 64.472656 48.402344 65.222656 49.023438 66.179688 C 51.332031 63.671875 55.429688 62.1875 58.722656 62.121094 C 60.644531 62.082031 62.21875 62.734375 63.457031 63.792969 C 63.773438 64.066406 64.074219 64.355469 64.347656 64.679688 C 65.726562 66.3125 66.527344 68.53125 66.753906 70.78125 C 66.910156 72.328125 66.796875 73.890625 66.402344 75.28125 C 65.5625 78.238281 63.273438 80.90625 61.050781 82.941406 C 58.109375 85.636719 54.730469 87.832031 51.695312 90.425781 C 51.320312 90.742188 50.765625 90.996094 50.265625 90.800781 C 48.527344 90.121094 46.71875 89.195312 44.976562 88.074219 C 44.789062 88.867188 44.324219 89.585938 43.589844 89.949219 C 42.605469 90.4375 41.65625 90.5625 40.691406 90.574219 C 39.765625 90.585938 38.832031 90.496094 37.828125 90.507812 C 36.035156 90.53125 34.28125 90.972656 32.492188 90.894531 C 32.328125 90.890625 32.183594 90.847656 32.039062 90.8125 C 30.386719 90.425781 29.773438 88.453125 30.921875 87.109375 C 31.101562 86.898438 31.300781 86.699219 31.515625 86.503906 C 33.445312 84.75 36.699219 83.609375 39.636719 83.667969 C 38.570312 82.527344 37.632812 81.289062 36.875 79.980469 C 35.644531 77.867188 34.890625 75.558594 34.859375 73.105469 C 34.851562 72.636719 34.863281 72.164062 34.910156 71.683594 C 35.121094 69.609375 35.902344 67.480469 37.234375 65.851562 C 37.503906 65.523438 37.792969 65.214844 38.109375 64.933594 C 37.574219 65.03125 37.039062 65.136719 36.503906 65.222656 C 36.261719 65.261719 36.035156 65.261719 35.8125 65.230469 C 35.800781 65.261719 35.800781 65.292969 35.792969 65.324219 C 35.4375 66.558594 33.832031 66.421875 33.417969 65.324219 C 33.378906 65.210938 33.355469 65.09375 33.324219 64.980469 C 32.421875 65.652344 31.089844 65.46875 30.019531 65.429688 C 29.410156 65.40625 28.800781 65.382812 28.191406 65.359375 C 28.175781 65.628906 28.210938 65.875 28.289062 66.105469 C 28.277344 66.136719 28.261719 66.171875 28.25 66.207031 C 28.21875 66.316406 28.203125 66.425781 28.191406 66.535156 C 28.238281 66.605469 28.289062 66.667969 28.320312 66.757812 C 28.5625 67.429688 28.796875 68.097656 29.019531 68.773438 C 29.058594 68.808594 29.089844 68.847656 29.132812 68.886719 C 29.148438 69.015625 29.15625 69.144531 29.175781 69.269531 C 29.75 71.074219 30.246094 72.902344 30.59375 74.773438 C 30.847656 76.148438 31.0625 77.53125 31.222656 78.917969 C 31.34375 79.933594 31.609375 81.195312 31.496094 82.300781 C 31.464844 82.625 31.402344 82.933594 31.289062 83.222656 C 31.265625 83.285156 31.222656 83.339844 31.191406 83.398438 C 31.285156 83.679688 31.242188 84 30.933594 84.273438 C 26.9375 87.796875 27.988281 93.367188 30.871094 97.253906 C 31.101562 97.523438 31.347656 97.773438 31.605469 98.011719 C 31.660156 98.125 31.710938 98.242188 31.777344 98.351562 C 32.25 98.867188 32.75 99.34375 33.277344 99.757812 C 36.132812 102.007812 39.589844 103.433594 43.136719 104.53125 C 45.238281 105.183594 47.375 105.71875 49.425781 106.234375 C 49.695312 106.304688 49.964844 106.355469 50.238281 106.421875 C 50.496094 106.460938 50.75 106.488281 51.007812 106.519531 C 51.070312 106.5625 51.140625 106.601562 51.207031 106.640625 C 56.804688 107.949219 62.492188 108.820312 68.226562 109.25 C 68.882812 109.296875 69.542969 109.335938 70.195312 109.371094 C 72.414062 109.496094 74.628906 109.550781 76.832031 109.535156 C 77.730469 109.527344 78.625 109.511719 79.519531 109.484375 C 87.574219 109.238281 95.539062 108.113281 103.417969 106.289062 C 104.179688 106.113281 104.9375 105.933594 105.699219 105.746094 C 106.984375 105.425781 108.269531 105.09375 109.546875 104.738281 C 109.863281 104.652344 110.140625 104.667969 110.371094 104.753906 C 112.625 103.082031 115.007812 101.394531 115.992188 98.65625 C 116.332031 97.707031 116.453125 96.640625 116.335938 95.617188 C 116.207031 94.484375 115.769531 93.417969 114.964844 92.625 C 114.972656 93.050781 114.902344 93.464844 114.753906 93.851562 C 114.433594 94.65625 113.761719 95.316406 112.664062 95.59375 C 112.597656 95.609375 112.527344 95.617188 112.457031 95.632812 C 112.300781 95.664062 112.144531 95.695312 111.988281 95.71875 C 110.058594 96.003906 108.253906 95.445312 106.316406 95.097656 C 104.304688 94.734375 102.234375 94.585938 100.304688 93.890625 C 98.449219 93.222656 98.039062 91.324219 98.921875 90.011719 C 99.226562 89.550781 99.691406 89.160156 100.304688 88.917969 C 102.347656 88.113281 104.664062 88.050781 106.835938 88.132812 C 108.59375 88.203125 110.546875 88.21875 112.195312 88.910156 C 112.636719 89.09375 113.058594 89.316406 113.445312 89.613281 C 113.519531 89.671875 113.589844 89.738281 113.65625 89.800781 C 114.316406 87.1875 114.902344 84.550781 115.546875 81.933594 C 115.886719 80.554688 116.234375 79.183594 116.582031 77.804688 C 116.800781 76.953125 116.996094 76.054688 117.28125 75.203125 C 117.324219 74.984375 117.371094 74.765625 117.410156 74.546875 C 117.453125 74.542969 117.496094 74.53125 117.542969 74.527344 C 117.542969 74.523438 117.542969 74.523438 117.546875 74.519531 C 116.925781 74.246094 116.320312 73.902344 115.730469 73.550781 C 115.066406 73.371094 114.398438 73.167969 113.734375 72.960938 Z M 81.699219 90.527344 C 81.082031 93.003906 78.820312 94.738281 76.277344 94.804688 C 74.65625 94.847656 73.183594 94.191406 72.074219 93.128906 C 70.945312 94.851562 68.9375 95.96875 66.773438 95.621094 C 63.863281 95.160156 61.964844 92.242188 62.414062 89.414062 C 62.578125 88.375 64.292969 88.632812 64.234375 89.660156 C 64.136719 91.308594 65.300781 93.035156 67.015625 93.253906 C 68.640625 93.460938 70.308594 92.097656 70.449219 90.476562 C 70.578125 88.976562 72.414062 88.816406 72.960938 90.136719 C 73.5 91.445312 74.992188 92.347656 76.398438 92.234375 C 77.882812 92.117188 79.117188 91 79.722656 89.695312 C 80.253906 88.542969 81.980469 89.386719 81.699219 90.527344 Z M 76.59375 112.71875 C 74.539062 112.71875 72.484375 112.660156 70.425781 112.546875 C 71.132812 113.820312 72.546875 114.695312 73.964844 114.53125 C 74.859375 114.429688 75.636719 113.917969 76.242188 113.226562 C 76.347656 113.105469 76.480469 112.910156 76.59375 112.71875 Z M 75.089844 113.910156 C 75.085938 113.910156 75.082031 113.910156 75.074219 113.914062 C 75.085938 113.910156 75.097656 113.898438 75.109375 113.890625 C 75.105469 113.898438 75.097656 113.902344 75.089844 113.910156 Z M 90.902344 65.429688 C 90.96875 65.445312 91.039062 65.460938 91.105469 65.484375 C 91.164062 65.535156 91.230469 65.582031 91.292969 65.628906 C 91.050781 65.570312 90.710938 65.460938 90.542969 65.351562 C 90.679688 65.378906 90.800781 65.40625 90.902344 65.429688 Z M 95.117188 87.921875 C 95.246094 87.824219 95.375 87.730469 95.53125 87.683594 C 95.390625 87.765625 95.257812 87.847656 95.117188 87.921875 Z M 87.941406 79.898438 C 87.953125 79.945312 87.96875 79.992188 87.980469 80.039062 C 87.902344 79.921875 87.820312 79.800781 87.742188 79.679688 C 87.808594 79.753906 87.875 79.828125 87.941406 79.898438 Z M 93.878906 88.089844 C 93.945312 88.085938 94.050781 88.144531 94.160156 88.203125 C 94.054688 88.1875 93.960938 88.152344 93.878906 88.089844 Z M 79.859375 130.035156 C 79.851562 130.074219 79.859375 130.113281 79.851562 130.152344 C 79.839844 130.234375 79.820312 130.3125 79.804688 130.394531 C 79.8125 130.511719 79.8125 130.628906 79.785156 130.746094 C 79.777344 130.945312 79.714844 131.136719 79.605469 131.308594 C 79.597656 131.320312 79.59375 131.332031 79.589844 131.34375 C 79.546875 131.503906 79.492188 131.65625 79.441406 131.8125 C 79.421875 131.882812 79.390625 131.953125 79.378906 132.027344 C 79.339844 132.160156 79.285156 132.28125 79.21875 132.398438 C 78.484375 134.191406 77.242188 135.773438 75.574219 136.917969 C 75.335938 137.078125 75.074219 137.207031 74.820312 137.34375 C 74.109375 137.972656 73.332031 138.511719 72.457031 138.886719 C 70.804688 139.59375 68.960938 139.824219 67.222656 139.242188 C 66.886719 139.128906 66.523438 138.96875 66.160156 138.78125 C 66.074219 138.761719 65.988281 138.742188 65.902344 138.71875 C 65.902344 138.695312 65.910156 138.667969 65.910156 138.644531 C 65.894531 138.300781 65.6875 137.972656 65.226562 137.828125 C 65.015625 137.761719 64.808594 137.691406 64.601562 137.621094 C 63.953125 137.410156 63.316406 137.171875 62.691406 136.902344 C 61.597656 136.4375 60.566406 135.863281 59.667969 135.121094 C 58.949219 134.527344 58.308594 133.839844 57.804688 132.992188 C 56.082031 130.085938 56.09375 126.074219 56.847656 122.871094 C 57.230469 121.230469 57.925781 119.605469 59.207031 118.46875 C 59.226562 118.449219 59.25 118.429688 59.265625 118.414062 C 59.992188 117.792969 60.828125 117.390625 61.722656 117.140625 C 61.730469 117.21875 61.738281 117.296875 61.75 117.378906 C 61.757812 117.429688 61.773438 117.476562 61.777344 117.523438 C 61.828125 117.820312 61.882812 118.148438 61.9375 118.367188 C 62.390625 120.203125 63.398438 121.808594 64.835938 123.0625 C 64.464844 123.480469 64.101562 123.90625 63.804688 124.359375 C 63.367188 125.03125 63.535156 126.054688 63.769531 126.78125 C 63.945312 127.316406 64.199219 127.800781 64.515625 128.230469 C 64.960938 128.832031 65.535156 129.320312 66.210938 129.667969 C 66.355469 131.425781 67.007812 133.132812 68.066406 134.535156 C 68.289062 134.828125 68.53125 135.105469 68.789062 135.371094 C 69.519531 136.117188 70.371094 136.746094 71.351562 137.164062 C 72.648438 137.710938 73.804688 135.929688 72.492188 135.214844 C 72.03125 134.960938 71.613281 134.660156 71.214844 134.339844 C 71.125 134.269531 71.03125 134.199219 70.949219 134.125 C 69.460938 132.792969 68.539062 130.949219 68.546875 128.863281 C 68.550781 128.324219 68.171875 127.867188 67.667969 127.710938 C 66.609375 127.382812 65.933594 126.484375 65.847656 125.425781 C 66.308594 124.851562 66.773438 124.273438 67.238281 123.699219 C 67.359375 123.554688 67.441406 123.394531 67.492188 123.230469 C 67.535156 123.097656 67.550781 122.964844 67.542969 122.832031 C 67.527344 122.492188 67.359375 122.171875 67.011719 121.949219 C 65.464844 120.945312 64.394531 119.417969 63.824219 117.695312 C 63.800781 117.621094 63.78125 117.542969 63.753906 117.464844 C 63.691406 117.238281 63.617188 116.953125 63.582031 116.8125 C 64.105469 116.769531 64.632812 116.761719 65.152344 116.777344 C 65.628906 116.789062 66.105469 116.820312 66.578125 116.863281 C 68.253906 117.003906 69.929688 117.285156 71.570312 117.597656 C 73.195312 117.910156 74.851562 118.3125 76.363281 119 C 76.605469 119.136719 76.867188 119.253906 77.125 119.363281 C 78.21875 119.96875 79.171875 120.75 79.863281 121.734375 C 79.867188 121.738281 79.871094 121.746094 79.875 121.75 C 80 121.921875 80.105469 122.109375 80.210938 122.296875 C 80.246094 122.351562 80.273438 122.40625 80.304688 122.464844 C 80.53125 122.894531 80.714844 123.355469 80.839844 123.851562 C 81.09375 124.855469 81.140625 125.921875 80.949219 126.9375 C 80.742188 128.035156 80.128906 128.945312 79.863281 130.023438 C 79.859375 130.03125 79.859375 130.03125 79.859375 130.035156 Z M 65.015625 43.242188 C 65.082031 43.140625 65.152344 43.042969 65.222656 42.945312 C 65.195312 43.046875 65.234375 43.167969 65.015625 43.242188 Z M 48.589844 68.347656 C 48.542969 68.289062 48.492188 68.226562 48.441406 68.167969 C 48.457031 68.167969 48.472656 68.167969 48.492188 68.167969 C 48.523438 68.230469 48.554688 68.289062 48.589844 68.347656 Z M 60.945312 65.8125 C 60.984375 65.835938 61.03125 65.851562 61.070312 65.875 C 61.074219 65.878906 61.082031 65.882812 61.085938 65.886719 C 61.074219 65.886719 61.0625 65.882812 61.050781 65.882812 C 61.011719 65.882812 60.976562 65.851562 60.945312 65.8125 Z M 49.121094 69.035156 C 49.03125 68.917969 48.945312 68.796875 48.851562 68.683594 C 48.949219 68.78125 49.054688 68.859375 49.171875 68.925781 C 49.160156 68.964844 49.136719 68.996094 49.121094 69.035156 Z M 38.46875 77.339844 C 38.542969 77.546875 38.617188 77.75 38.695312 77.949219 C 38.53125 77.625 38.382812 77.296875 38.246094 76.960938 C 38.316406 77.089844 38.394531 77.214844 38.46875 77.339844 Z M 65.414062 42.796875 C 65.351562 42.8125 65.3125 42.832031 65.28125 42.855469 C 65.390625 42.699219 65.496094 42.542969 65.609375 42.390625 C 65.613281 42.402344 65.617188 42.414062 65.625 42.429688 C 65.722656 42.648438 65.21875 42.675781 65.414062 42.796875 Z M 65.414062 42.796875 "/></g><path style=" stroke:none;fill-rule:nonzero;fill:#f0816a;fill-opacity:1;" d="M 73.464844 46.152344 C 73.507812 46.386719 73.5625 46.621094 73.597656 46.859375 C 73.355469 47.253906 72.945312 47.539062 72.46875 47.476562 C 71.445312 47.347656 70.425781 47.246094 69.398438 47.191406 C 68.75 47.152344 68.097656 47.128906 67.441406 47.140625 C 65.835938 47.160156 64.257812 47.332031 62.667969 47.535156 C 63.023438 46.734375 63.410156 45.945312 63.835938 45.179688 C 64.203125 44.519531 64.59375 43.871094 65.011719 43.238281 C 65.230469 43.167969 65.191406 43.042969 65.21875 42.941406 C 65.238281 42.910156 65.261719 42.882812 65.277344 42.855469 C 65.308594 42.832031 65.34375 42.808594 65.410156 42.792969 C 65.214844 42.671875 65.71875 42.648438 65.621094 42.425781 C 65.613281 42.414062 65.613281 42.398438 65.605469 42.386719 C 65.917969 41.953125 66.226562 41.519531 66.566406 41.101562 C 67.316406 40.183594 68.269531 38.761719 69.40625 38.296875 C 70.285156 37.9375 70.910156 38.589844 71.339844 39.335938 C 71.519531 39.648438 71.671875 39.980469 71.789062 40.261719 C 72.578125 42.136719 73.101562 44.132812 73.464844 46.152344 Z M 112.207031 88.917969 C 110.558594 88.230469 108.605469 88.210938 106.847656 88.140625 C 104.671875 88.054688 102.355469 88.125 100.3125 88.929688 C 99.695312 89.171875 99.238281 89.558594 98.929688 90.019531 C 98.050781 91.335938 98.460938 93.230469 100.3125 93.898438 C 102.242188 94.59375 104.3125 94.742188 106.324219 95.105469 C 108.265625 95.457031 110.066406 96.015625 112 95.726562 C 112.152344 95.703125 112.308594 95.671875 112.464844 95.640625 C 112.535156 95.625 112.601562 95.617188 112.675781 95.601562 C 113.769531 95.320312 114.445312 94.664062 114.761719 93.863281 C 114.914062 93.476562 114.980469 93.0625 114.972656 92.632812 C 114.699219 92.363281 114.394531 92.117188 114.03125 91.921875 C 113.523438 91.648438 113.480469 91.152344 113.691406 90.765625 C 113.585938 90.574219 113.535156 90.339844 113.605469 90.066406 C 113.628906 89.984375 113.644531 89.894531 113.667969 89.8125 C 113.601562 89.75 113.53125 89.683594 113.457031 89.625 C 113.070312 89.324219 112.644531 89.101562 112.207031 88.917969 Z M 91.824219 48.207031 C 91.613281 46.257812 90.785156 44.304688 89.4375 42.847656 C 88.847656 42.207031 88.164062 41.652344 87.375 41.253906 C 85.84375 40.480469 84.484375 40.464844 83.28125 40.929688 C 80.882812 41.851562 79.105469 44.679688 77.867188 47.277344 C 78.015625 47.511719 78.257812 47.6875 78.597656 47.675781 C 79.152344 47.660156 79.703125 47.65625 80.261719 47.660156 C 81.648438 47.667969 83.035156 47.753906 84.398438 47.996094 C 85.894531 48.265625 87.328125 48.652344 88.746094 49.152344 C 89.121094 49.28125 89.488281 49.425781 89.859375 49.570312 C 90.375 50.296875 91.210938 50.4375 91.875 50.171875 C 91.902344 49.519531 91.902344 48.871094 91.824219 48.207031 Z M 31.519531 86.511719 C 31.304688 86.707031 31.105469 86.90625 30.925781 87.113281 C 29.777344 88.460938 30.390625 90.433594 32.042969 90.816406 C 32.191406 90.851562 32.332031 90.894531 32.496094 90.902344 C 34.285156 90.980469 36.039062 90.535156 37.828125 90.515625 C 38.832031 90.503906 39.769531 90.59375 40.691406 90.582031 C 41.660156 90.566406 42.609375 90.441406 43.59375 89.957031 C 44.328125 89.59375 44.789062 88.875 44.980469 88.078125 C 43.054688 86.84375 41.210938 85.359375 39.636719 83.675781 C 36.703125 83.617188 33.445312 84.753906 31.519531 86.511719 Z M 31.519531 86.511719 "/><path style=" stroke:none;fill-rule:nonzero;fill:#f794c6;fill-opacity:1;" d="M 101.128906 124.652344 C 101.769531 125.167969 102.40625 125.691406 103.121094 126.089844 C 103.117188 126.765625 102.75 127.4375 101.886719 127.738281 C 99.277344 128.632812 96.324219 128.5625 93.585938 128.667969 C 91.941406 128.730469 90.296875 128.738281 88.652344 128.699219 C 88.40625 128.746094 88.152344 128.78125 87.90625 128.804688 C 86.714844 128.917969 85.488281 128.972656 84.289062 128.988281 C 83.980469 128.992188 83.695312 128.917969 83.441406 128.800781 C 83.851562 127.609375 83.980469 126.277344 83.910156 125.117188 C 83.835938 123.90625 83.542969 122.730469 83.054688 121.644531 C 82.589844 120.613281 81.945312 119.667969 81.128906 118.855469 C 80.382812 118.117188 79.546875 117.519531 78.648438 117.019531 C 78.015625 116.667969 77.355469 116.363281 76.671875 116.105469 C 76.515625 116.046875 76.351562 115.996094 76.191406 115.9375 C 76.324219 115.871094 76.445312 115.78125 76.570312 115.703125 C 77.007812 115.429688 77.414062 115.121094 77.757812 114.734375 C 78.160156 114.285156 78.523438 113.742188 78.789062 113.160156 C 78.855469 113.003906 78.921875 112.847656 78.972656 112.6875 C 79.285156 112.679688 79.59375 112.679688 79.902344 112.667969 C 80.71875 112.644531 81.53125 112.617188 82.34375 112.578125 C 83.199219 112.535156 84.054688 112.484375 84.90625 112.425781 C 86.402344 112.320312 90.839844 111.851562 91.566406 111.757812 C 93.691406 111.484375 98.003906 110.703125 98.046875 110.695312 C 98.082031 110.820312 98.144531 110.9375 98.226562 111.042969 C 98.238281 111.058594 98.25 111.074219 98.265625 111.089844 C 98.410156 111.246094 98.632812 111.347656 98.90625 111.382812 C 98.953125 111.390625 98.992188 111.410156 99.046875 111.414062 C 100.378906 111.457031 101.707031 112.433594 101.753906 113.832031 C 101.8125 115.507812 100.417969 116.328125 98.941406 116.574219 C 96.964844 116.902344 94.886719 116.875 92.886719 116.957031 C 91.605469 117.007812 90.328125 117.03125 89.046875 117.035156 C 88.386719 117.039062 87.726562 117.03125 87.066406 117.015625 C 86.839844 117.015625 86.617188 117.015625 86.390625 117.011719 C 86.039062 117 85.804688 117.164062 85.664062 117.390625 C 85.472656 117.699219 85.480469 118.125 85.695312 118.4375 C 85.839844 118.648438 86.0625 118.808594 86.390625 118.832031 C 86.976562 118.867188 87.566406 118.898438 88.15625 118.925781 C 88.269531 118.933594 88.386719 118.9375 88.5 118.945312 C 90.199219 119.027344 91.894531 119.078125 93.59375 119.078125 C 93.882812 119.078125 94.179688 119.078125 94.46875 119.074219 C 94.507812 119.121094 94.53125 119.171875 94.582031 119.21875 C 95.097656 119.652344 95.617188 120.082031 96.132812 120.519531 C 97.0625 121.300781 97.988281 122.089844 98.929688 122.855469 C 99.480469 123.304688 100.03125 123.753906 100.582031 124.199219 C 100.761719 124.351562 100.945312 124.503906 101.128906 124.652344 Z M 56.839844 114.617188 C 56.835938 114.578125 56.832031 114.542969 56.824219 114.503906 C 56.820312 114.511719 56.828125 114.5625 56.839844 114.617188 Z M 125.769531 54.761719 C 127.503906 54.644531 129.535156 54.550781 130.890625 53.339844 C 131.917969 52.425781 131.328125 50.738281 130.109375 50.375 C 128.683594 49.957031 127.046875 50.503906 125.613281 50.699219 C 124.164062 50.902344 122.6875 50.96875 121.226562 50.949219 C 119.777344 50.933594 118.304688 50.859375 116.867188 50.664062 C 116.269531 50.582031 115.675781 50.464844 115.082031 50.339844 C 115.175781 50.382812 115.265625 50.429688 115.347656 50.507812 C 116.59375 51.648438 117.648438 52.996094 118.554688 54.449219 C 119.410156 54.578125 120.257812 54.671875 121.070312 54.734375 C 122.632812 54.863281 124.203125 54.871094 125.769531 54.761719 Z M 101.746094 49.300781 C 101.808594 49.347656 101.867188 49.398438 101.933594 49.449219 C 101.960938 49.472656 101.988281 49.492188 102.015625 49.519531 C 102.132812 49.640625 102.261719 49.75 102.410156 49.832031 C 102.546875 49.910156 102.6875 49.988281 102.832031 50.0625 C 102.898438 50.101562 102.972656 50.136719 103.046875 50.171875 C 103.191406 50.242188 103.339844 50.304688 103.488281 50.355469 C 103.652344 50.378906 103.8125 50.398438 103.976562 50.421875 C 104.007812 50.425781 104.039062 50.429688 104.074219 50.433594 C 104.152344 50.441406 104.226562 50.453125 104.304688 50.457031 C 104.496094 50.464844 104.730469 50.398438 104.933594 50.359375 C 105.183594 50.289062 105.40625 50.164062 105.59375 49.976562 C 105.78125 49.789062 105.910156 49.570312 105.980469 49.316406 C 106.050781 49.050781 106.050781 48.785156 105.980469 48.519531 C 105.90625 48.269531 105.78125 48.046875 105.59375 47.859375 C 105.554688 47.8125 105.511719 47.761719 105.472656 47.714844 C 105.339844 47.570312 105.171875 47.464844 105.007812 47.363281 C 104.773438 47.21875 104.53125 47.089844 104.261719 47.023438 C 104.128906 46.992188 103.988281 46.972656 103.851562 46.949219 C 103.789062 46.9375 103.726562 46.929688 103.664062 46.917969 C 103.644531 46.914062 103.628906 46.910156 103.613281 46.90625 C 103.417969 46.847656 103.230469 46.84375 103.039062 46.875 C 103.054688 46.871094 103.070312 46.867188 103.089844 46.867188 C 102.980469 46.867188 102.871094 46.867188 102.761719 46.867188 C 102.636719 46.886719 102.507812 46.902344 102.382812 46.921875 C 102.269531 46.96875 102.15625 47.015625 102.042969 47.0625 C 101.945312 47.140625 101.851562 47.210938 101.753906 47.285156 C 101.617188 47.414062 101.515625 47.570312 101.460938 47.746094 C 101.398438 47.855469 101.363281 47.976562 101.363281 48.105469 C 101.332031 48.230469 101.332031 48.359375 101.363281 48.484375 C 101.363281 48.613281 101.398438 48.734375 101.460938 48.84375 C 101.507812 49.023438 101.609375 49.171875 101.746094 49.300781 Z M 111.113281 50.652344 C 110.871094 51.253906 111.070312 51.96875 111.652344 52.304688 C 112.636719 52.867188 113.730469 53.308594 114.875 53.652344 C 114.511719 53.007812 114.148438 52.371094 113.769531 51.726562 C 113.339844 50.984375 113.941406 50.28125 114.621094 50.246094 C 113.976562 50.113281 113.328125 49.976562 112.675781 49.886719 C 112.019531 49.796875 111.378906 49.984375 111.113281 50.652344 Z M 41.042969 48.777344 C 43.902344 48.691406 46.753906 48.5 49.585938 48.074219 C 51.484375 47.789062 50.941406 44.867188 49.144531 44.824219 C 47.597656 44.785156 46.054688 44.804688 44.507812 44.835938 C 44.457031 44.945312 44.386719 45.050781 44.277344 45.152344 C 43.105469 46.253906 42.019531 47.476562 41.042969 48.777344 Z M 68.53125 112.664062 C 68.507812 112.585938 68.492188 112.503906 68.472656 112.421875 C 68.398438 112.417969 68.320312 112.410156 68.246094 112.40625 C 67.203125 112.328125 66.160156 112.238281 65.117188 112.128906 C 63.320312 111.945312 61.53125 111.71875 59.746094 111.445312 C 59.199219 111.363281 58.652344 111.277344 58.105469 111.183594 C 58.054688 111.238281 58.011719 111.292969 57.953125 111.339844 C 58.125 111.207031 57.78125 111.519531 57.785156 111.492188 C 57.707031 111.582031 57.632812 111.679688 57.554688 111.769531 C 57.542969 111.78125 57.511719 111.824219 57.484375 111.859375 C 57.332031 112.082031 57.203125 112.308594 57.085938 112.546875 C 57.070312 112.585938 57.054688 112.625 57.050781 112.640625 C 57.023438 112.71875 56.996094 112.796875 56.976562 112.875 C 56.933594 113.023438 56.898438 113.171875 56.871094 113.328125 C 56.859375 113.394531 56.847656 113.464844 56.835938 113.535156 C 56.835938 113.539062 56.835938 113.539062 56.835938 113.542969 C 56.835938 113.546875 56.835938 113.550781 56.835938 113.558594 C 56.824219 113.714844 56.8125 113.867188 56.8125 114.019531 C 56.8125 114.175781 56.820312 114.328125 56.835938 114.484375 C 56.835938 114.53125 56.84375 114.574219 56.847656 114.621094 C 56.859375 114.675781 56.875 114.734375 56.878906 114.746094 C 56.910156 114.898438 56.949219 115.046875 57 115.191406 C 57.023438 115.261719 57.054688 115.335938 57.074219 115.40625 C 57.222656 115.691406 57.367188 115.960938 57.550781 116.222656 C 57.589844 116.28125 57.628906 116.339844 57.667969 116.394531 C 57.691406 116.425781 57.707031 116.453125 57.722656 116.46875 C 57.710938 116.457031 57.703125 116.441406 57.683594 116.417969 C 57.730469 116.480469 57.78125 116.542969 57.828125 116.605469 C 58.511719 116.050781 59.269531 115.613281 60.082031 115.273438 C 60.085938 115.253906 61.222656 114.839844 61.332031 114.84375 C 62.679688 114.464844 64.128906 114.3125 65.589844 114.320312 C 66.316406 114.324219 67.050781 114.359375 67.773438 114.429688 C 68.351562 114.488281 68.9375 114.546875 69.53125 114.613281 C 69.542969 114.585938 69.542969 114.550781 69.550781 114.519531 C 69.082031 113.976562 68.738281 113.34375 68.53125 112.664062 Z M 38.246094 76.960938 C 38.320312 77.09375 38.394531 77.214844 38.46875 77.339844 C 38.542969 77.546875 38.617188 77.75 38.695312 77.949219 C 40.289062 81.117188 43.1875 83.71875 46.324219 85.636719 C 47.675781 86.460938 49.066406 87.152344 50.410156 87.710938 C 53.144531 85.464844 56.078125 83.449219 58.714844 81.082031 C 58.835938 80.976562 58.949219 80.867188 59.066406 80.753906 C 60.660156 79.273438 62.117188 77.582031 63.011719 75.699219 C 64 73.636719 64.320312 71.351562 63.429688 68.890625 C 62.960938 67.601562 62.140625 66.546875 61.085938 65.886719 C 61.074219 65.886719 61.066406 65.882812 61.054688 65.882812 C 61.015625 65.882812 60.980469 65.851562 60.945312 65.8125 C 60.496094 65.550781 60.019531 65.355469 59.5 65.25 C 58.984375 65.148438 58.445312 65.109375 57.875 65.1875 C 55.394531 65.515625 52.46875 66.679688 50.808594 68.621094 C 50.304688 69.210938 49.671875 69.214844 49.175781 68.925781 C 49.160156 68.964844 49.140625 68.996094 49.128906 69.035156 C 49.039062 68.917969 48.949219 68.796875 48.859375 68.683594 C 48.757812 68.585938 48.671875 68.472656 48.597656 68.347656 C 48.546875 68.289062 48.496094 68.226562 48.445312 68.167969 C 48.183594 68.148438 47.933594 68.019531 47.765625 67.714844 C 47.410156 67.074219 46.917969 66.566406 46.347656 66.183594 C 46.167969 66.0625 45.980469 65.964844 45.789062 65.871094 C 44.242188 65.105469 42.285156 65.136719 40.742188 66.03125 C 38.203125 67.511719 37.265625 70.730469 37.441406 73.503906 C 37.519531 74.71875 37.8125 75.871094 38.246094 76.960938 Z M 33.730469 45.179688 C 31.242188 45.214844 28.75 45.21875 26.265625 45.230469 C 24.9375 45.238281 23.609375 45.246094 22.285156 45.257812 C 21.039062 45.265625 19.660156 45.089844 18.480469 45.527344 C 17.59375 45.855469 17.171875 47.246094 18.191406 47.738281 C 19.320312 48.285156 20.554688 48.289062 21.789062 48.386719 C 23.113281 48.496094 24.441406 48.589844 25.769531 48.65625 C 28.425781 48.789062 31.074219 48.84375 33.730469 48.847656 C 35.195312 48.851562 36.660156 48.851562 38.125 48.835938 C 39.144531 47.414062 40.3125 46.097656 41.621094 44.921875 C 38.988281 45.019531 36.359375 45.140625 33.730469 45.179688 Z M 91.292969 65.628906 C 91.433594 65.667969 91.539062 65.683594 91.554688 65.679688 C 93.164062 66.386719 94.492188 67.695312 95.882812 68.847656 C 96.640625 69.472656 97.757812 69.070312 98.007812 68.304688 C 98.425781 68.070312 98.863281 67.863281 99.320312 67.679688 C 100.535156 67.191406 101.84375 66.925781 103.140625 66.996094 C 103.679688 67.023438 104.21875 67.09375 104.742188 67.25 C 105.378906 67.433594 105.957031 67.75 106.476562 68.148438 C 106.53125 68.246094 106.589844 68.339844 106.640625 68.445312 C 106.679688 68.417969 106.707031 68.382812 106.746094 68.363281 C 107.632812 69.121094 108.316406 70.132812 108.742188 71.210938 C 108.828125 71.429688 108.894531 71.652344 108.960938 71.871094 C 109.390625 73.300781 109.347656 74.664062 108.972656 75.9375 C 108.914062 76.144531 107.933594 78.285156 107.332031 79.074219 C 106.308594 80.414062 104.980469 81.597656 103.613281 82.59375 C 101.386719 84.207031 98.980469 85.570312 96.625 86.976562 C 96.269531 87.191406 95.90625 87.445312 95.535156 87.679688 C 95.378906 87.726562 95.246094 87.820312 95.121094 87.917969 C 94.996094 87.988281 94.871094 88.050781 94.738281 88.105469 C 94.5 88.207031 94.320312 88.226562 94.167969 88.203125 C 94.058594 88.140625 93.953125 88.085938 93.882812 88.089844 C 93.683594 87.9375 93.515625 87.675781 93.269531 87.375 C 92.78125 86.765625 92.304688 86.152344 91.835938 85.527344 C 91.339844 84.867188 90.851562 84.203125 90.375 83.53125 C 89.5625 82.390625 88.757812 81.222656 87.988281 80.039062 C 87.976562 79.992188 87.960938 79.945312 87.949219 79.898438 C 87.882812 79.828125 87.816406 79.753906 87.75 79.679688 C 86.929688 78.402344 86.15625 77.09375 85.460938 75.753906 C 84.265625 73.445312 83.320312 70.664062 84.390625 68.121094 C 85.195312 66.214844 87.125 65.175781 89.140625 65.152344 C 89.242188 65.152344 89.339844 65.167969 89.4375 65.171875 C 89.765625 65.203125 90.199219 65.277344 90.546875 65.351562 C 90.707031 65.460938 91.050781 65.570312 91.292969 65.628906 Z M 91.292969 65.628906 "/><g clip-rule="nonzero" clip-path="url(#2d2056ac2f)"><path style=" stroke:none;fill-rule:nonzero;fill:#020201;fill-opacity:1;" d="M 88.523438 62.273438 C 88.007812 62.300781 87.5 62.378906 86.996094 62.5 C 86.3125 62.664062 85.644531 62.925781 85.003906 63.28125 C 84.765625 63.414062 84.535156 63.550781 84.308594 63.710938 C 84.058594 63.886719 83.816406 64.0625 83.582031 64.269531 C 77.578125 69.574219 83.148438 78.085938 86.527344 83.066406 C 87.652344 84.726562 88.832031 86.339844 90.058594 87.925781 C 91.03125 89.179688 92.085938 91.015625 93.828125 91.222656 C 94.195312 91.269531 94.566406 91.21875 94.933594 91.128906 C 95.398438 91.019531 95.859375 90.828125 96.308594 90.582031 C 97.238281 90.082031 98.128906 89.410156 98.902344 88.945312 C 100.464844 88 102.046875 87.074219 103.570312 86.058594 C 103.972656 85.789062 104.371094 85.507812 104.769531 85.21875 C 106.726562 83.796875 108.59375 82.101562 109.945312 80.148438 C 110.378906 79.527344 110.753906 78.878906 111.066406 78.207031 C 111.886719 76.429688 112.242188 74.484375 111.867188 72.367188 C 111.804688 72.03125 111.742188 71.695312 111.640625 71.351562 C 111.242188 69.9375 110.550781 68.613281 109.609375 67.511719 C 108.675781 66.421875 107.503906 65.550781 106.128906 65.035156 C 104.300781 64.355469 102.324219 64.359375 100.476562 64.871094 C 100.351562 64.90625 100.230469 64.945312 100.105469 64.988281 C 99.078125 65.3125 98.097656 65.78125 97.214844 66.394531 C 95.480469 64.160156 92.8125 62.640625 90.066406 62.320312 C 89.554688 62.265625 89.039062 62.246094 88.523438 62.273438 Z M 91.554688 65.679688 C 93.164062 66.386719 94.492188 67.695312 95.882812 68.847656 C 96.640625 69.472656 97.753906 69.070312 98.003906 68.304688 C 98.421875 68.070312 98.863281 67.863281 99.316406 67.679688 C 100.53125 67.191406 101.84375 66.925781 103.136719 66.996094 C 103.675781 67.023438 104.214844 67.09375 104.742188 67.25 C 105.378906 67.433594 105.953125 67.75 106.472656 68.148438 C 106.566406 68.214844 106.65625 68.289062 106.746094 68.363281 C 107.628906 69.121094 108.3125 70.132812 108.738281 71.210938 C 108.828125 71.429688 108.894531 71.652344 108.957031 71.871094 C 109.386719 73.300781 109.347656 74.664062 108.972656 75.9375 C 108.910156 76.144531 107.929688 78.285156 107.332031 79.074219 C 106.304688 80.414062 104.976562 81.597656 103.609375 82.59375 C 101.382812 84.207031 98.980469 85.570312 96.625 86.976562 C 96.265625 87.191406 95.902344 87.445312 95.53125 87.679688 C 95.394531 87.765625 95.257812 87.84375 95.117188 87.917969 C 94.992188 87.988281 94.867188 88.050781 94.738281 88.105469 C 94.496094 88.207031 94.316406 88.226562 94.164062 88.203125 C 94.058594 88.183594 93.964844 88.148438 93.882812 88.089844 C 93.679688 87.9375 93.511719 87.675781 93.269531 87.375 C 92.777344 86.765625 92.300781 86.152344 91.832031 85.527344 C 91.335938 84.867188 90.851562 84.203125 90.371094 83.53125 C 89.558594 82.390625 88.757812 81.222656 87.984375 80.039062 C 87.90625 79.921875 87.824219 79.800781 87.746094 79.679688 C 86.925781 78.402344 86.152344 77.09375 85.457031 75.753906 C 84.261719 73.445312 83.316406 70.664062 84.386719 68.121094 C 85.191406 66.214844 87.121094 65.175781 89.136719 65.152344 C 89.214844 65.152344 89.320312 65.160156 89.433594 65.171875 C 89.761719 65.203125 90.804688 65.40625 90.902344 65.429688 C 90.996094 65.449219 91.074219 65.472656 91.109375 65.484375 C 91.257812 65.539062 91.402344 65.613281 91.554688 65.679688 Z M 33.425781 65.332031 C 33.382812 65.222656 33.363281 65.101562 33.328125 64.988281 C 33.109375 64.207031 33.082031 63.316406 33.152344 62.410156 C 33.25 61.226562 33.5 60.027344 33.695312 59.035156 C 34.082031 57.074219 34.714844 55.191406 35.523438 53.363281 C 36.234375 51.761719 37.109375 50.246094 38.117188 48.839844 C 39.140625 47.414062 40.304688 46.101562 41.613281 44.921875 C 42.042969 44.539062 42.480469 44.167969 42.9375 43.8125 C 43.761719 43.167969 44.890625 44.039062 44.511719 44.84375 C 44.460938 44.949219 44.386719 45.054688 44.28125 45.15625 C 43.101562 46.257812 42.019531 47.476562 41.042969 48.78125 C 39.753906 50.503906 38.664062 52.375 37.855469 54.347656 C 37.335938 55.617188 36.921875 56.941406 36.613281 58.28125 C 36.5 58.769531 36.398438 59.261719 36.308594 59.757812 C 36.148438 60.695312 36.050781 61.640625 36.007812 62.589844 C 35.96875 63.484375 36.042969 64.371094 35.8125 65.238281 C 35.804688 65.269531 35.804688 65.304688 35.796875 65.332031 C 35.4375 66.566406 33.835938 66.429688 33.425781 65.332031 Z M 60.0625 56.917969 C 60.03125 57.164062 59.917969 57.347656 59.765625 57.492188 C 59.246094 57.988281 58.246094 57.839844 58.265625 56.917969 C 58.292969 55.839844 58.394531 54.765625 58.550781 53.695312 C 59.421875 47.738281 62.234375 41.972656 66.316406 37.609375 C 67.367188 36.492188 68.667969 35.503906 70.285156 35.652344 C 71.78125 35.785156 72.910156 36.910156 73.628906 38.152344 C 74.734375 40.046875 75.460938 42.289062 75.976562 44.550781 C 78.535156 39.957031 82.640625 36 88.234375 38.402344 C 94.375 41.039062 95.472656 47.710938 94.503906 53.796875 C 94.171875 55.875 93.601562 57.882812 92.90625 59.640625 C 92.488281 60.695312 91.375 60.824219 90.707031 60.328125 C 90.574219 60.226562 90.460938 60.105469 90.371094 59.960938 C 90.203125 59.683594 90.128906 59.324219 90.214844 58.898438 C 90.792969 55.957031 91.769531 53.140625 91.878906 50.164062 C 91.902344 49.519531 91.898438 48.871094 91.824219 48.207031 C 91.613281 46.257812 90.785156 44.304688 89.4375 42.847656 C 88.847656 42.207031 88.164062 41.652344 87.375 41.253906 C 85.84375 40.480469 84.484375 40.464844 83.28125 40.929688 C 80.882812 41.851562 79.105469 44.679688 77.867188 47.277344 C 77.441406 48.171875 77.078125 49.039062 76.773438 49.789062 C 76.457031 50.574219 75.761719 50.886719 75.132812 50.785156 C 75.078125 50.777344 75.03125 50.753906 74.980469 50.738281 C 74.445312 50.59375 73.992188 50.148438 73.921875 49.402344 C 73.84375 48.554688 73.730469 47.710938 73.59375 46.859375 C 73.554688 46.621094 73.503906 46.386719 73.460938 46.152344 C 73.097656 44.132812 72.574219 42.136719 71.792969 40.261719 C 71.675781 39.984375 71.519531 39.652344 71.339844 39.339844 C 70.910156 38.59375 70.285156 37.9375 69.410156 38.300781 C 68.273438 38.765625 67.320312 40.183594 66.570312 41.105469 C 66.230469 41.519531 65.921875 41.953125 65.609375 42.390625 C 65.496094 42.546875 65.394531 42.699219 65.28125 42.855469 C 65.261719 42.886719 65.238281 42.914062 65.222656 42.945312 C 65.152344 43.042969 65.082031 43.140625 65.015625 43.242188 C 64.597656 43.871094 64.207031 44.519531 63.839844 45.179688 C 63.414062 45.949219 63.027344 46.738281 62.671875 47.539062 C 61.355469 50.503906 60.492188 53.675781 60.0625 56.917969 Z M 7.722656 60.9375 C 5.886719 59.34375 8.761719 55.214844 9.707031 53.738281 C 11.28125 51.28125 13.226562 49.089844 15.460938 47.210938 C 19.941406 43.445312 25.40625 41.316406 31.148438 40.414062 C 31.972656 40.285156 31.996094 39.261719 31.492188 38.785156 C 36.621094 33.113281 42.601562 28.316406 49.734375 25.390625 C 56.894531 22.457031 65.109375 21.058594 72.820312 22.03125 C 72.953125 22.046875 73.074219 22.03125 73.179688 21.992188 C 73.261719 22.632812 73.976562 23.222656 74.628906 22.777344 C 80.851562 18.539062 88.851562 19.128906 95.691406 21.429688 C 102.3125 23.660156 108.253906 27.835938 112.765625 33.144531 C 115.382812 36.222656 117.128906 39.753906 119.167969 43.199219 C 119.9375 44.496094 121.941406 43.636719 121.582031 42.183594 C 120.65625 38.429688 118.363281 35.035156 115.988281 32.039062 C 113.605469 29.035156 110.792969 26.410156 107.6875 24.164062 C 105.5625 22.628906 103.238281 21.273438 100.796875 20.15625 C 101.183594 17.082031 103.683594 14.761719 106.6875 14.035156 C 110.414062 13.136719 114.226562 15.074219 117.210938 17.125 C 122.996094 21.109375 128.410156 27.117188 129.957031 34.132812 C 130.773438 37.820312 130.148438 41.496094 128.132812 44.660156 C 127.25 44.023438 126.335938 43.429688 125.386719 42.882812 C 124.242188 42.214844 123.21875 43.972656 124.351562 44.65625 C 127.902344 46.804688 130.824219 49.890625 132.976562 53.429688 C 134.011719 55.132812 134.949219 56.886719 135.636719 58.757812 C 135.992188 59.726562 136.296875 60.71875 136.550781 61.71875 C 136.820312 62.765625 136.925781 63.96875 137.464844 64.914062 C 137.507812 64.988281 137.570312 65.042969 137.625 65.105469 C 138.328125 65.914062 139.894531 65.726562 140.136719 64.5625 C 140.582031 62.425781 139.4375 59.726562 138.632812 57.773438 C 137.78125 55.683594 136.742188 53.652344 135.410156 51.828125 C 133.949219 49.828125 132.261719 48.039062 130.402344 46.445312 C 133.355469 43.601562 133.996094 39.144531 133.488281 35.210938 C 132.925781 30.851562 130.9375 26.785156 128.289062 23.316406 C 125.582031 19.761719 122.160156 16.652344 118.410156 14.222656 C 114.75 11.855469 109.957031 10.089844 105.609375 11.484375 C 102.152344 12.59375 98.9375 15.601562 98.746094 19.28125 C 94.605469 17.660156 90.1875 16.753906 85.804688 16.839844 C 81.429688 16.929688 77.113281 18.132812 73.757812 21 C 73.75 20.589844 73.546875 20.203125 73.082031 20.128906 C 67.449219 19.207031 61.945312 19.203125 56.425781 20.332031 C 55.347656 17.527344 52.582031 15.164062 49.992188 14.015625 C 45.875 12.191406 41.242188 12.8125 37.1875 14.484375 C 33.3125 16.082031 29.78125 18.515625 26.921875 21.578125 C 24.1875 24.507812 21.515625 28.253906 21.261719 32.382812 C 21.097656 35.09375 22.558594 38.050781 24.863281 39.363281 C 20.257812 40.570312 15.960938 43.050781 12.457031 46.21875 C 9.953125 48.484375 7.796875 51.183594 6.210938 54.167969 C 4.839844 56.757812 3.210938 60.746094 6.296875 62.792969 C 6.910156 63.199219 7.585938 62.847656 7.902344 62.304688 C 8.148438 61.875 8.175781 61.332031 7.722656 60.9375 Z M 24.191406 34.773438 C 23.457031 32.738281 24.175781 30.410156 25.132812 28.582031 C 27.046875 24.929688 30.117188 21.785156 33.535156 19.519531 C 37.117188 17.148438 41.574219 15.214844 45.960938 15.75 C 47.894531 15.984375 49.742188 16.792969 51.226562 18.050781 C 52.257812 18.929688 52.917969 19.953125 53.558594 21.027344 C 47.429688 22.722656 41.617188 25.707031 36.671875 29.691406 C 33.761719 32.03125 31.210938 34.746094 29.167969 37.875 C 29.113281 37.957031 29.101562 38.039062 29.074219 38.121094 C 28.945312 38.046875 28.796875 37.996094 28.609375 38 C 26.589844 38.074219 24.863281 36.632812 24.191406 34.773438 Z M 81.699219 90.527344 C 81.082031 93.003906 78.820312 94.738281 76.277344 94.804688 C 74.65625 94.847656 73.183594 94.191406 72.074219 93.128906 C 70.945312 94.851562 68.9375 95.96875 66.773438 95.621094 C 63.863281 95.160156 61.964844 92.242188 62.414062 89.414062 C 62.578125 88.375 64.292969 88.632812 64.234375 89.660156 C 64.136719 91.308594 65.300781 93.035156 67.015625 93.253906 C 68.640625 93.460938 70.308594 92.097656 70.449219 90.476562 C 70.578125 88.976562 72.414062 88.816406 72.960938 90.136719 C 73.5 91.445312 74.992188 92.347656 76.398438 92.234375 C 77.882812 92.117188 79.117188 91 79.722656 89.695312 C 80.253906 88.542969 81.980469 89.386719 81.699219 90.527344 Z M 147.148438 98.308594 C 145.378906 99.578125 143.480469 100.902344 141.257812 101.136719 C 139.195312 101.355469 137.203125 100.609375 135.445312 99.59375 C 132.546875 97.917969 130.648438 96.035156 129.769531 92.785156 C 128.9375 89.71875 128.886719 86.464844 128.949219 83.308594 C 129.011719 79.941406 129.257812 76.570312 129.496094 73.210938 C 129.679688 70.59375 129.929688 67.882812 129.5625 65.261719 C 129.53125 65.019531 129.496094 64.769531 129.453125 64.527344 C 129.226562 63.335938 127.472656 63.859375 127.652344 65.023438 C 128.078125 67.78125 127.625 70.753906 127.324219 73.496094 C 127.226562 74.378906 127.125 75.261719 127.023438 76.144531 C 126.988281 76.457031 126.957031 76.773438 126.921875 77.085938 C 126.804688 78.105469 126.691406 79.128906 126.59375 80.15625 C 126.453125 81.617188 126.328125 83.078125 126.269531 84.550781 C 126.132812 87.914062 126.222656 91.445312 127.261719 94.675781 C 128.445312 98.371094 131.050781 100.761719 134.402344 102.625 C 136.589844 103.839844 139.085938 104.636719 141.609375 104.371094 C 141.792969 104.355469 141.972656 104.316406 142.148438 104.289062 C 138.730469 107.328125 134.757812 109.769531 130.175781 110.152344 C 124.75 110.601562 118.648438 108 116.582031 102.742188 C 117.480469 101.546875 118.15625 100.226562 118.453125 98.816406 C 119.078125 95.84375 118.167969 92.300781 115.480469 90.644531 C 115.488281 90.621094 115.507812 90.605469 115.515625 90.582031 C 116.3125 87.917969 117.203125 85.273438 118.023438 82.613281 C 118.429688 81.308594 118.824219 80 119.21875 78.695312 C 119.460938 77.890625 119.742188 77.0625 119.945312 76.222656 C 120.667969 76.523438 121.683594 76.246094 121.992188 75.339844 C 123.410156 71.144531 122.871094 66.214844 121.734375 62.015625 C 121.035156 59.425781 120 56.785156 118.546875 54.445312 C 117.648438 52.988281 116.585938 51.644531 115.34375 50.503906 C 115.257812 50.425781 115.164062 50.375 115.074219 50.335938 C 114.925781 50.265625 114.769531 50.230469 114.617188 50.242188 C 113.941406 50.273438 113.332031 50.980469 113.765625 51.722656 C 114.140625 52.363281 114.507812 53.003906 114.867188 53.644531 C 116.503906 56.566406 117.945312 59.523438 118.71875 62.851562 C 119.078125 64.390625 119.257812 65.917969 119.328125 67.445312 C 119.378906 68.515625 119.378906 69.589844 119.351562 70.664062 C 119.34375 70.976562 119.335938 71.289062 119.324219 71.601562 C 119.304688 72.175781 119.28125 72.753906 119.253906 73.332031 C 118.734375 73.199219 118.140625 73.351562 117.839844 73.894531 C 117.808594 73.949219 117.789062 74.011719 117.757812 74.066406 C 117.683594 74.214844 117.613281 74.367188 117.546875 74.523438 C 117.546875 74.523438 117.542969 74.527344 117.542969 74.53125 C 117.449219 74.753906 117.359375 74.976562 117.28125 75.207031 C 116.996094 76.058594 116.800781 76.957031 116.585938 77.808594 C 116.238281 79.183594 115.890625 80.558594 115.550781 81.933594 C 114.902344 84.554688 114.320312 87.191406 113.660156 89.800781 C 113.640625 89.886719 113.621094 89.972656 113.597656 90.058594 C 113.527344 90.335938 113.574219 90.566406 113.679688 90.757812 C 113.472656 91.140625 113.511719 91.640625 114.023438 91.914062 C 114.386719 92.109375 114.6875 92.355469 114.964844 92.625 C 115.769531 93.414062 116.207031 94.484375 116.335938 95.617188 C 116.453125 96.640625 116.332031 97.707031 115.992188 98.65625 C 115.007812 101.394531 112.625 103.082031 110.371094 104.753906 C 110.140625 104.667969 109.863281 104.652344 109.546875 104.738281 C 108.269531 105.09375 106.984375 105.421875 105.699219 105.746094 C 104.9375 105.933594 104.179688 106.113281 103.417969 106.289062 C 95.539062 108.109375 87.574219 109.234375 79.519531 109.484375 C 78.625 109.511719 77.730469 109.527344 76.832031 109.535156 C 74.628906 109.550781 72.414062 109.496094 70.195312 109.371094 C 69.539062 109.335938 68.882812 109.300781 68.226562 109.25 C 62.492188 108.820312 56.804688 107.949219 51.207031 106.640625 C 50.886719 106.566406 50.5625 106.5 50.238281 106.421875 C 49.96875 106.355469 49.695312 106.304688 49.429688 106.234375 C 47.375 105.71875 45.242188 105.183594 43.136719 104.53125 C 39.59375 103.433594 36.136719 102.007812 33.277344 99.757812 C 32.753906 99.34375 32.25 98.867188 31.78125 98.351562 C 31.460938 98.003906 31.160156 97.636719 30.875 97.253906 C 27.992188 93.367188 26.941406 87.796875 30.941406 84.273438 C 31.246094 84 31.289062 83.679688 31.195312 83.398438 C 31.230469 83.339844 31.273438 83.285156 31.296875 83.222656 C 31.410156 82.9375 31.46875 82.625 31.503906 82.300781 C 31.617188 81.195312 31.347656 79.933594 31.230469 78.917969 C 31.066406 77.53125 30.855469 76.148438 30.597656 74.773438 C 30.25 72.902344 29.753906 71.074219 29.179688 69.269531 C 29.125 69.105469 29.082031 68.9375 29.027344 68.773438 C 28.804688 68.097656 28.570312 67.429688 28.328125 66.757812 C 28.292969 66.667969 28.242188 66.605469 28.199219 66.535156 C 27.664062 65.730469 26.316406 66.167969 26.539062 67.25 C 27.085938 69.914062 27.484375 72.609375 27.8125 75.304688 C 27.96875 76.609375 28.085938 77.914062 28.183594 79.222656 C 28.289062 80.636719 28.128906 82.257812 28.765625 83.554688 C 28.785156 83.59375 28.816406 83.613281 28.835938 83.648438 C 25.308594 87.328125 25.53125 93.480469 28.035156 97.707031 C 29.351562 99.933594 31.203125 101.675781 33.3125 103.089844 C 32.941406 103.269531 32.652344 103.617188 32.632812 104.171875 C 32.40625 110.675781 25.734375 115.09375 19.628906 114.8125 C 17.601562 114.71875 15.710938 114.1875 13.949219 113.351562 C 13.269531 113.03125 12.609375 112.667969 11.972656 112.261719 C 9.394531 110.605469 7.171875 108.300781 5.347656 105.789062 C 5.109375 105.460938 4.878906 105.132812 4.652344 104.800781 C 5.070312 104.984375 5.488281 105.160156 5.90625 105.332031 C 7.003906 105.785156 8.125 106.1875 9.316406 106.414062 C 11.242188 106.78125 13.113281 106.664062 14.828125 106.042969 C 16.054688 105.59375 17.203125 104.894531 18.214844 103.886719 C 18.527344 103.574219 18.8125 103.246094 19.085938 102.914062 C 24.527344 96.476562 23.351562 87.027344 21.890625 79.324219 C 21.023438 74.753906 19.820312 70.195312 19.460938 65.546875 C 19.410156 64.828125 18.703125 64.546875 18.179688 64.703125 C 17.84375 64.800781 17.578125 65.078125 17.609375 65.546875 C 18.136719 73.394531 20.671875 80.96875 20.707031 88.878906 C 20.722656 92.839844 20.097656 96.675781 17.878906 100.03125 C 16.144531 102.644531 13.632812 104.253906 10.441406 103.707031 C 7.628906 103.226562 5.128906 101.703125 2.367188 101.039062 C 0.71875 100.644531 0.0898438 102.972656 1.617188 103.5625 C 4.683594 108.976562 9.171875 113.90625 15.078125 116.15625 C 20.703125 118.300781 27.253906 117.054688 31.601562 112.828125 C 33.953125 110.546875 35.371094 107.523438 35.175781 104.226562 C 37.871094 105.710938 40.847656 106.785156 43.667969 107.691406 C 47.582031 108.953125 51.589844 109.964844 55.648438 110.742188 C 54.902344 111.636719 54.480469 112.792969 54.421875 113.976562 C 54.34375 115.515625 54.917969 117.386719 56.28125 118.25 C 55.972656 118.6875 55.691406 119.15625 55.445312 119.683594 C 53.722656 123.414062 53.492188 128.578125 54.972656 132.421875 C 56.574219 136.566406 60.417969 139.023438 64.710938 139.671875 C 65.414062 139.777344 65.871094 139.25 65.890625 138.71875 C 65.890625 138.695312 65.902344 138.667969 65.902344 138.644531 C 65.886719 138.300781 65.679688 137.972656 65.21875 137.828125 C 65.007812 137.761719 64.796875 137.691406 64.589844 137.621094 C 63.945312 137.410156 63.308594 137.171875 62.683594 136.902344 C 61.589844 136.4375 60.558594 135.863281 59.65625 135.121094 C 58.941406 134.527344 58.300781 133.839844 57.796875 132.992188 C 56.074219 130.085938 56.082031 126.074219 56.835938 122.871094 C 57.222656 121.230469 57.914062 119.605469 59.199219 118.46875 C 59.203125 118.460938 59.210938 118.453125 59.21875 118.445312 C 59.230469 118.433594 59.246094 118.425781 59.261719 118.417969 C 59.984375 117.792969 60.824219 117.394531 61.714844 117.144531 C 61.726562 117.222656 61.734375 117.300781 61.746094 117.378906 C 61.75 117.429688 61.765625 117.480469 61.773438 117.527344 C 61.816406 117.8125 61.863281 118.09375 61.933594 118.371094 C 62.386719 120.207031 63.390625 121.8125 64.828125 123.066406 C 64.457031 123.484375 64.09375 123.910156 63.800781 124.363281 C 63.363281 125.035156 63.527344 126.058594 63.765625 126.785156 C 63.9375 127.320312 64.195312 127.804688 64.507812 128.230469 C 64.953125 128.835938 65.527344 129.320312 66.203125 129.671875 C 66.351562 131.425781 67 133.136719 68.058594 134.539062 C 68.28125 134.832031 68.527344 135.109375 68.785156 135.371094 C 69.515625 136.121094 70.363281 136.746094 71.347656 137.164062 C 72.640625 137.714844 73.796875 135.929688 72.484375 135.214844 C 72.027344 134.964844 71.605469 134.664062 71.207031 134.34375 C 71.117188 134.269531 71.027344 134.203125 70.941406 134.125 C 69.453125 132.796875 68.53125 130.953125 68.542969 128.867188 C 68.542969 128.328125 68.164062 127.867188 67.664062 127.710938 C 66.601562 127.386719 65.925781 126.488281 65.839844 125.425781 C 66.304688 124.855469 66.765625 124.277344 67.230469 123.703125 C 67.351562 123.558594 67.4375 123.398438 67.488281 123.234375 C 67.527344 123.101562 67.542969 122.96875 67.539062 122.835938 C 67.523438 122.496094 67.355469 122.175781 67.007812 121.949219 C 65.457031 120.949219 64.390625 119.421875 63.820312 117.699219 C 63.792969 117.625 63.773438 117.546875 63.75 117.46875 C 63.714844 117.351562 63.675781 117.230469 63.644531 117.109375 C 63.621094 117.011719 63.597656 116.910156 63.574219 116.8125 C 64.101562 116.769531 64.625 116.761719 65.144531 116.777344 C 65.621094 116.789062 66.097656 116.820312 66.574219 116.863281 C 68.246094 117.003906 69.921875 117.285156 71.5625 117.597656 C 73.1875 117.910156 74.84375 118.3125 76.359375 119 C 76.550781 119.085938 76.75 119.160156 76.9375 119.261719 C 77 119.292969 77.058594 119.332031 77.121094 119.363281 C 78.214844 119.96875 79.167969 120.75 79.859375 121.734375 C 79.859375 121.738281 79.863281 121.746094 79.871094 121.75 C 79.992188 121.921875 80.101562 122.109375 80.207031 122.296875 C 80.234375 122.351562 80.269531 122.40625 80.300781 122.464844 C 80.523438 122.894531 80.707031 123.355469 80.835938 123.851562 C 81.089844 124.855469 81.132812 125.921875 80.941406 126.9375 C 80.734375 128.035156 80.121094 128.945312 79.859375 130.023438 C 79.847656 130.0625 79.855469 130.105469 79.847656 130.144531 C 79.824219 130.332031 79.839844 130.519531 79.902344 130.699219 C 79.660156 131.28125 79.941406 132.109375 80.769531 132.109375 C 81.300781 132.109375 81.597656 131.761719 81.6875 131.359375 C 82.523438 130.742188 83.085938 129.816406 83.4375 128.796875 C 83.847656 127.601562 83.976562 126.269531 83.902344 125.113281 C 83.828125 123.902344 83.539062 122.726562 83.046875 121.636719 C 82.582031 120.609375 81.941406 119.664062 81.121094 118.847656 C 80.378906 118.109375 79.539062 117.511719 78.644531 117.015625 C 78.011719 116.664062 77.347656 116.355469 76.664062 116.101562 C 76.507812 116.039062 76.347656 115.988281 76.1875 115.933594 C 76.320312 115.863281 76.4375 115.777344 76.566406 115.695312 C 77 115.425781 77.410156 115.117188 77.75 114.730469 C 78.15625 114.277344 78.519531 113.734375 78.78125 113.152344 C 78.851562 112.996094 78.914062 112.839844 78.96875 112.679688 C 79.277344 112.675781 79.585938 112.671875 79.898438 112.664062 C 80.710938 112.640625 81.523438 112.613281 82.335938 112.574219 C 83.191406 112.53125 84.046875 112.480469 84.902344 112.417969 C 86.398438 112.3125 90.835938 111.847656 91.558594 111.753906 C 93.6875 111.476562 97.996094 110.699219 98.042969 110.691406 C 98.078125 110.816406 98.136719 110.933594 98.222656 111.039062 C 98.234375 111.054688 98.242188 111.066406 98.257812 111.082031 C 98.40625 111.238281 98.628906 111.339844 98.902344 111.378906 C 98.949219 111.382812 98.988281 111.40625 99.042969 111.40625 C 100.371094 111.449219 101.699219 112.429688 101.75 113.824219 C 101.804688 115.5 100.410156 116.324219 98.9375 116.570312 C 96.957031 116.898438 94.882812 116.871094 92.878906 116.949219 C 91.601562 117 90.320312 117.027344 89.042969 117.027344 C 88.378906 117.03125 87.71875 117.027344 87.058594 117.011719 C 86.832031 117.007812 86.609375 117.011719 86.386719 117.003906 C 86.03125 116.996094 85.796875 117.15625 85.660156 117.382812 C 85.464844 117.691406 85.476562 118.117188 85.6875 118.429688 C 85.832031 118.644531 86.058594 118.804688 86.386719 118.824219 C 86.972656 118.859375 87.558594 118.890625 88.148438 118.921875 C 88.261719 118.925781 88.378906 118.933594 88.496094 118.9375 C 90.191406 119.023438 91.890625 119.070312 93.585938 119.070312 C 93.878906 119.070312 94.171875 119.070312 94.464844 119.066406 C 94.503906 119.117188 94.523438 119.167969 94.574219 119.210938 C 95.089844 119.648438 95.613281 120.078125 96.128906 120.511719 C 97.054688 121.296875 97.980469 122.082031 98.925781 122.851562 C 99.476562 123.296875 100.023438 123.746094 100.574219 124.195312 C 100.757812 124.34375 100.941406 124.492188 101.128906 124.644531 C 101.765625 125.15625 102.402344 125.683594 103.117188 126.078125 C 103.277344 126.167969 103.433594 126.257812 103.597656 126.328125 C 104.816406 126.855469 105.835938 125.570312 104.996094 124.519531 C 104.371094 123.730469 103.535156 123.160156 102.726562 122.570312 C 101.960938 122.011719 101.191406 121.460938 100.421875 120.910156 C 99.53125 120.273438 98.632812 119.65625 97.734375 119.03125 C 99.292969 118.964844 100.859375 118.730469 102.074219 117.875 C 103.757812 116.6875 104.589844 114.378906 103.910156 112.398438 C 103.539062 111.3125 102.769531 110.410156 101.808594 109.84375 C 104.457031 109.195312 107.066406 108.417969 109.632812 107.496094 C 109.980469 107.679688 110.398438 107.722656 110.789062 107.519531 C 112.285156 106.738281 113.828125 105.65625 115.144531 104.359375 C 117.601562 109.800781 123.746094 113.027344 129.664062 112.976562 C 137.65625 112.910156 144.691406 107.480469 149.050781 101.171875 C 149.246094 100.890625 149.296875 100.601562 149.257812 100.324219 C 149.894531 99.128906 148.449219 97.371094 147.148438 98.308594 Z M 56.824219 114.503906 C 56.832031 114.542969 56.835938 114.578125 56.839844 114.617188 C 56.828125 114.5625 56.820312 114.511719 56.824219 114.503906 Z M 69.523438 114.621094 C 68.929688 114.554688 68.34375 114.496094 67.765625 114.4375 C 67.042969 114.367188 66.308594 114.328125 65.578125 114.328125 C 64.117188 114.320312 62.671875 114.46875 61.320312 114.847656 C 60.894531 114.96875 60.476562 115.113281 60.074219 115.28125 C 59.261719 115.617188 58.5 116.054688 57.820312 116.613281 C 57.769531 116.546875 57.722656 116.484375 57.675781 116.425781 C 57.695312 116.449219 57.707031 116.460938 57.714844 116.476562 C 57.699219 116.457031 57.679688 116.429688 57.660156 116.402344 C 57.621094 116.34375 57.582031 116.289062 57.542969 116.230469 C 57.359375 115.96875 57.210938 115.699219 57.066406 115.414062 C 57.042969 115.339844 57.011719 115.269531 56.988281 115.195312 C 56.941406 115.050781 56.902344 114.902344 56.871094 114.753906 C 56.867188 114.742188 56.851562 114.683594 56.839844 114.625 C 56.835938 114.582031 56.828125 114.535156 56.824219 114.492188 C 56.808594 114.339844 56.804688 114.183594 56.804688 114.027344 C 56.804688 113.871094 56.816406 113.714844 56.828125 113.5625 C 56.828125 113.554688 56.828125 113.554688 56.828125 113.546875 C 56.828125 113.546875 56.828125 113.546875 56.828125 113.542969 C 56.839844 113.472656 56.847656 113.40625 56.859375 113.332031 C 56.886719 113.183594 56.925781 113.027344 56.964844 112.882812 C 56.988281 112.800781 57.015625 112.722656 57.042969 112.644531 C 57.046875 112.625 57.0625 112.589844 57.078125 112.554688 C 57.195312 112.3125 57.324219 112.082031 57.476562 111.863281 C 57.503906 111.832031 57.535156 111.789062 57.546875 111.773438 C 57.625 111.6875 57.699219 111.585938 57.777344 111.496094 C 57.769531 111.523438 58.117188 111.210938 57.945312 111.34375 C 58.003906 111.300781 58.046875 111.246094 58.097656 111.191406 C 58.640625 111.285156 59.1875 111.371094 59.734375 111.453125 C 61.519531 111.722656 63.3125 111.949219 65.105469 112.132812 C 66.148438 112.238281 67.191406 112.332031 68.238281 112.410156 C 68.3125 112.417969 68.386719 112.421875 68.464844 112.429688 C 68.484375 112.507812 68.5 112.589844 68.523438 112.671875 C 68.730469 113.351562 69.074219 113.984375 69.53125 114.535156 C 69.558594 114.566406 69.582031 114.605469 69.609375 114.636719 C 69.585938 114.628906 69.554688 114.625 69.523438 114.621094 Z M 70.429688 112.546875 C 72.484375 112.65625 74.542969 112.71875 76.597656 112.71875 C 76.480469 112.914062 76.351562 113.105469 76.242188 113.226562 C 75.640625 113.917969 74.863281 114.429688 73.96875 114.53125 C 72.546875 114.695312 71.136719 113.820312 70.429688 112.546875 Z M 34.914062 71.691406 C 34.863281 72.171875 34.855469 72.640625 34.863281 73.113281 C 34.890625 75.5625 35.648438 77.871094 36.878906 79.988281 C 37.636719 81.296875 38.570312 82.53125 39.636719 83.675781 C 41.210938 85.359375 43.054688 86.839844 44.980469 88.078125 C 46.722656 89.199219 48.53125 90.125 50.265625 90.808594 C 50.769531 91.003906 51.320312 90.75 51.695312 90.429688 C 54.734375 87.839844 58.109375 85.644531 61.054688 82.949219 C 63.277344 80.910156 65.566406 78.246094 66.40625 75.289062 C 66.796875 73.898438 66.914062 72.335938 66.757812 70.785156 C 66.53125 68.535156 65.730469 66.316406 64.351562 64.6875 C 64.078125 64.363281 63.777344 64.070312 63.457031 63.796875 C 62.21875 62.742188 60.648438 62.085938 58.726562 62.125 C 55.429688 62.191406 51.335938 63.679688 49.027344 66.1875 C 48.40625 65.226562 47.566406 64.472656 46.59375 63.953125 C 46.347656 63.820312 46.101562 63.683594 45.839844 63.582031 C 44.320312 62.980469 42.589844 62.878906 40.972656 63.34375 C 40.40625 63.503906 39.882812 63.734375 39.394531 64.015625 C 38.933594 64.277344 38.503906 64.589844 38.117188 64.941406 C 37.804688 65.222656 37.511719 65.53125 37.242188 65.859375 C 35.90625 67.484375 35.125 69.617188 34.914062 71.691406 Z M 40.742188 66.035156 C 42.285156 65.136719 44.238281 65.109375 45.789062 65.875 C 45.980469 65.96875 46.167969 66.066406 46.347656 66.1875 C 46.917969 66.570312 47.410156 67.078125 47.765625 67.71875 C 47.933594 68.023438 48.1875 68.152344 48.445312 68.171875 C 48.464844 68.171875 48.480469 68.171875 48.496094 68.171875 C 48.527344 68.234375 48.5625 68.292969 48.597656 68.351562 C 48.671875 68.472656 48.757812 68.589844 48.859375 68.6875 C 48.953125 68.78125 49.0625 68.859375 49.175781 68.925781 C 49.675781 69.21875 50.304688 69.210938 50.808594 68.625 C 52.46875 66.6875 55.394531 65.519531 57.875 65.1875 C 58.445312 65.113281 58.984375 65.148438 59.5 65.25 C 60.019531 65.355469 60.5 65.554688 60.945312 65.816406 C 60.984375 65.839844 61.03125 65.855469 61.070312 65.878906 C 61.074219 65.882812 61.082031 65.886719 61.085938 65.886719 C 62.136719 66.550781 62.957031 67.605469 63.425781 68.894531 C 64.316406 71.355469 63.996094 73.640625 63.011719 75.703125 C 62.113281 77.582031 60.660156 79.277344 59.0625 80.757812 C 58.945312 80.867188 58.828125 80.976562 58.710938 81.085938 C 56.078125 83.449219 53.140625 85.464844 50.40625 87.714844 C 49.0625 87.152344 47.675781 86.460938 46.324219 85.636719 C 43.1875 83.722656 40.285156 81.121094 38.691406 77.949219 C 38.53125 77.625 38.378906 77.300781 38.246094 76.964844 C 37.808594 75.871094 37.519531 74.722656 37.4375 73.507812 C 37.265625 70.730469 38.203125 67.511719 40.742188 66.035156 Z M 40.742188 66.035156 "/></g></g></svg>